# Blender 5.1.0
# www.blender.org
mtllib TidusArm.mtl
o Arm
v 0.036821 0.051471 -0.096521
v 0.034435 0.038745 -0.117505
v 0.034448 0.017829 -0.103827
v 0.036727 0.028539 -0.084377
v 0.036821 0.051471 -0.096521
v 0.036727 0.028539 -0.084377
v 0.034448 0.017829 -0.103827
v 0.034435 0.038745 -0.117505
v 0.135351 0.052605 -0.121547
v 0.131255 0.049329 -0.102253
v 0.136338 0.050337 -0.110223
v 0.121174 0.051345 -0.118747
v 0.135937 0.043155 -0.124723
v 0.118866 0.022113 -0.126160
v 0.133195 0.020727 -0.128722
v 0.119247 0.014553 -0.112849
v 0.133599 0.017577 -0.119365
v 0.137269 0.040257 -0.113486
v 0.139888 0.018837 -0.120291
v 0.145309 0.040131 -0.115857
v 0.151190 0.019089 -0.120997
v 0.152569 0.040005 -0.113994
v 0.157799 0.020475 -0.115850
v 0.160539 0.040257 -0.108177
v 0.166612 0.042273 -0.109966
v 0.130040 0.040257 -0.095339
v 0.131255 0.049329 -0.102253
v 0.147954 0.057897 -0.095306
v 0.120104 0.028917 -0.100574
v 0.126148 0.045045 -0.090328
v 0.113984 0.037359 -0.093080
v 0.113729 0.047313 -0.099995
v 0.113730 0.047061 -0.101464
v 0.121174 0.051345 -0.118747
v 0.112550 0.045927 -0.115403
v 0.118866 0.022113 -0.126160
v 0.110631 0.020349 -0.122729
v 0.119247 0.014553 -0.112849
v 0.111208 0.013923 -0.111211
v 0.112088 0.015435 -0.102892
v 0.148750 0.052983 -0.090270
v 0.130040 0.040257 -0.095339
v 0.147954 0.057897 -0.095306
v 0.138550 0.052983 -0.088462
v 0.147954 0.057897 -0.095306
v 0.137732 0.057519 -0.093216
v 0.131255 0.049329 -0.102253
v 0.124920 0.051723 -0.096358
v 0.121174 0.051345 -0.118747
v 0.113729 0.047313 -0.099995
v 0.049838 0.041769 -0.077087
v 0.036292 0.017073 -0.080963
v 0.048135 0.017199 -0.082814
v 0.038212 0.042651 -0.075106
v 0.049180 0.059157 -0.095563
v 0.037489 0.060795 -0.094209
v 0.046754 0.051849 -0.119658
v 0.034977 0.053109 -0.119385
v 0.033057 0.027531 -0.125242
v 0.163306 0.047817 -0.110336
v 0.163091 0.041265 -0.111935
v 0.168516 0.048825 -0.114114
v 0.154211 0.041643 -0.114771
v 0.154513 0.049455 -0.112826
v 0.143753 0.041139 -0.114735
v 0.143794 0.049833 -0.112358
v 0.137269 0.040257 -0.113486
v 0.136338 0.050337 -0.110223
v 0.155621 0.042777 -0.122744
v 0.168516 0.048825 -0.114114
v 0.168366 0.041517 -0.115821
v 0.155900 0.051723 -0.120518
v 0.146114 0.043407 -0.124047
v 0.146242 0.052227 -0.121324
v 0.135937 0.043155 -0.124723
v 0.135351 0.052605 -0.121547
v 0.151190 0.019089 -0.120997
v 0.154521 0.020349 -0.126051
v 0.157799 0.020475 -0.115850
v 0.144106 0.020349 -0.127311
v 0.139888 0.018837 -0.120291
v 0.133195 0.020727 -0.128722
v 0.133599 0.017577 -0.119365
v 0.148880 0.042147 -0.124736
v 0.144106 0.020349 -0.127311
v 0.135937 0.043155 -0.124723
v 0.154521 0.020349 -0.126051
v 0.156700 0.042273 -0.120626
v 0.162489 0.021357 -0.116560
v 0.166612 0.042273 -0.109966
v 0.145309 0.040131 -0.115857
v 0.148880 0.042147 -0.124736
v 0.135937 0.043155 -0.124723
v 0.156700 0.042273 -0.120626
v 0.152569 0.040005 -0.113994
v 0.160539 0.040257 -0.108177
v 0.131255 0.049329 -0.102253
v 0.137269 0.040257 -0.113486
v 0.136338 0.050337 -0.110223
v 0.119247 0.014553 -0.112849
v 0.120104 0.028917 -0.100574
v 0.112088 0.015435 -0.102892
v 0.102245 0.035469 -0.085287
v 0.095071 0.035847 -0.084600
v 0.100671 0.015561 -0.091230
v 0.094539 0.051093 -0.098883
v 0.101714 0.050715 -0.099570
v 0.092607 0.046431 -0.119154
v 0.094539 0.051093 -0.098883
v 0.093562 0.015939 -0.090651
v 0.095071 0.035847 -0.084600
v 0.091522 0.011151 -0.110986
v 0.092607 0.046431 -0.119154
v 0.091099 0.026523 -0.125205
v 0.045644 0.009891 -0.106802
v 0.033057 0.027531 -0.125242
v 0.044985 0.027279 -0.125277
v 0.033888 0.009513 -0.106074
v 0.048135 0.017199 -0.082814
v 0.036292 0.017073 -0.080963
v 0.037489 0.060795 -0.094209
v 0.036292 0.017073 -0.080963
v 0.038212 0.042651 -0.075106
v 0.033888 0.009513 -0.106074
v 0.034977 0.053109 -0.119385
v 0.033057 0.027531 -0.125242
v 0.048857 0.054369 -0.096492
v 0.093936 0.046809 -0.101304
v 0.092734 0.044415 -0.114227
v 0.094469 0.034587 -0.090694
v 0.049387 0.041013 -0.081474
v 0.047964 0.019845 -0.086445
v 0.155900 0.051723 -0.120518
v 0.154513 0.049455 -0.112826
v 0.163306 0.047817 -0.110336
v 0.143794 0.049833 -0.112358
v 0.146242 0.052227 -0.121324
v 0.135351 0.052605 -0.121547
v 0.110690 0.005355 -0.113286
v 0.114398 0.054999 -0.099886
v 0.114970 0.036603 -0.081756
v 0.111907 0.048447 -0.124609
v 0.110053 0.023751 -0.131308
v 0.098005 0.005985 -0.112235
v 0.099222 0.049077 -0.123558
v 0.097368 0.024381 -0.130258
v 0.101713 0.055629 -0.098836
v 0.102285 0.037233 -0.080705
v 0.092734 0.044415 -0.114227
v 0.046925 0.050589 -0.116762
v 0.048857 0.054369 -0.096492
v 0.045351 0.028287 -0.121971
v 0.091311 0.025137 -0.119198
v 0.138550 0.052983 -0.088462
v 0.126148 0.045045 -0.090328
v 0.130040 0.040257 -0.095339
v 0.124920 0.051723 -0.096358
v 0.137732 0.057519 -0.093216
v 0.098631 0.010899 -0.111565
v 0.091522 0.011151 -0.110986
v 0.098208 0.026145 -0.125784
v 0.093562 0.015939 -0.090651
v 0.100671 0.015561 -0.091230
v 0.045644 0.009891 -0.106802
v 0.049838 0.041769 -0.077087
v 0.048135 0.017199 -0.082814
v 0.049180 0.059157 -0.095563
v 0.046754 0.051849 -0.119658
v 0.101713 0.055629 -0.098836
v 0.114970 0.036603 -0.081756
v 0.114398 0.054999 -0.099886
v 0.102285 0.037233 -0.080705
v 0.045902 0.014679 -0.105764
v 0.091311 0.025137 -0.119198
v 0.091823 0.016821 -0.108307
v 0.045351 0.028287 -0.121971
v 0.045902 0.014679 -0.105764
v 0.093003 0.018711 -0.095103
v 0.047964 0.019845 -0.086445
v 0.091823 0.016821 -0.108307
v 0.155621 0.042777 -0.122744
v 0.163091 0.041265 -0.111935
v 0.154211 0.041643 -0.114771
v 0.168366 0.041517 -0.115821
v 0.143753 0.041139 -0.114735
v 0.146114 0.043407 -0.124047
v 0.155621 0.042777 -0.122744
v 0.135937 0.043155 -0.124723
v 0.101713 0.055629 -0.098836
v 0.114398 0.054999 -0.099886
v 0.099222 0.049077 -0.123558
v 0.099222 0.049077 -0.123558
v 0.114398 0.054999 -0.099886
v 0.111907 0.048447 -0.124609
v 0.099222 0.049077 -0.123558
v 0.111907 0.048447 -0.124609
v 0.097368 0.024381 -0.130258
v 0.097368 0.024381 -0.130258
v 0.111907 0.048447 -0.124609
v 0.110053 0.023751 -0.131308
v 0.114970 0.036603 -0.081756
v 0.113116 0.011907 -0.088456
v 0.110690 0.005355 -0.113286
v 0.114970 0.036603 -0.081756
v 0.102285 0.037233 -0.080705
v 0.113116 0.011907 -0.088456
v 0.110690 0.005355 -0.113286
v 0.098005 0.005985 -0.112235
v 0.110053 0.023751 -0.131308
v 0.097368 0.024381 -0.130258
v 0.110053 0.023751 -0.131308
v 0.098005 0.005985 -0.112235
v 0.100539 0.012537 -0.087340
v 0.113116 0.011907 -0.088456
v 0.102285 0.037233 -0.080705
v 0.113116 0.011907 -0.088456
v 0.100539 0.012537 -0.087340
v 0.110690 0.005355 -0.113286
v 0.098005 0.005985 -0.112235
v 0.110690 0.005355 -0.113286
v 0.100539 0.012537 -0.087340
v 0.100539 0.012537 -0.087340
v 0.102285 0.037233 -0.080705
v 0.098005 0.005985 -0.112235
v 0.094469 0.034587 -0.090694
v 0.047964 0.019845 -0.086445
v 0.093003 0.018711 -0.095103
v 0.168366 0.041517 -0.115821
v 0.168516 0.048825 -0.114114
v 0.163091 0.041265 -0.111935
v 0.162489 0.021357 -0.116560
v 0.157799 0.020475 -0.115850
v 0.154521 0.020349 -0.126051
v 0.166612 0.042273 -0.109966
v 0.157799 0.020475 -0.115850
v 0.162489 0.021357 -0.116560
v 0.166612 0.042273 -0.109966
v 0.156700 0.042273 -0.120626
v 0.160539 0.040257 -0.108177
v 0.168516 0.048825 -0.114114
v 0.155900 0.051723 -0.120518
v 0.163306 0.047817 -0.110336
v 0.135351 0.052605 -0.121547
v 0.136338 0.050337 -0.110223
v 0.143794 0.049833 -0.112358
v 0.154211 0.041643 -0.114771
v 0.143753 0.041139 -0.114735
v 0.155621 0.042777 -0.122744
v 0.133195 0.020727 -0.128722
v 0.135937 0.043155 -0.124723
v 0.144106 0.020349 -0.127311
v 0.137269 0.040257 -0.113486
v 0.135937 0.043155 -0.124723
v 0.143753 0.041139 -0.114735
v 0.135937 0.043155 -0.124723
v 0.137269 0.040257 -0.113486
v 0.145309 0.040131 -0.115857
v 0.124920 0.051723 -0.096358
v 0.113729 0.047313 -0.099995
v 0.126148 0.045045 -0.090328
v 0.120104 0.028917 -0.100574
v 0.113984 0.037359 -0.093080
v 0.112088 0.015435 -0.102892
v 0.093562 0.015939 -0.090651
v 0.100671 0.015561 -0.091230
v 0.095071 0.035847 -0.084600
v 0.091099 0.026523 -0.125205
v 0.098208 0.026145 -0.125784
v 0.091522 0.011151 -0.110986
v 0.098208 0.026145 -0.125784
v 0.091099 0.026523 -0.125205
v 0.099782 0.046053 -0.119841
v 0.092607 0.046431 -0.119154
v 0.101714 0.050715 -0.099570
v 0.099782 0.046053 -0.119841
v 0.092607 0.046431 -0.119154
v 0.099782 0.046053 -0.119841
v 0.091099 0.026523 -0.125205
v 0.044985 0.027279 -0.125277
v 0.033057 0.027531 -0.125242
v 0.046754 0.051849 -0.119658
v 0.044985 0.027279 -0.125277
v 0.046754 0.051849 -0.119658
v 0.045644 0.009891 -0.106802
v 0.037317 0.057771 -0.094900
v 0.035041 0.051471 -0.118023
v 0.033359 0.028287 -0.123297
v 0.034103 0.012537 -0.105210
v 0.036358 0.019593 -0.082541
v 0.042391 0.055125 -0.123896
v 0.069430 0.054495 -0.099418
v 0.044925 0.060543 -0.098267
v 0.067779 0.050337 -0.119666
v 0.041228 0.041517 -0.129299
v 0.066529 0.038745 -0.124680
v 0.065795 0.026145 -0.125416
v 0.091182 0.025389 -0.120451
v 0.067779 0.050337 -0.119666
v 0.094043 0.048321 -0.100504
v 0.069430 0.054495 -0.099418
v 0.093037 0.045801 -0.115221
v 0.066529 0.038745 -0.124680
v 0.091765 0.036099 -0.119954
v 0.091182 0.025389 -0.120451
v 0.121414 0.042399 -0.089056
v 0.113851 0.042021 -0.088456
v 0.119953 0.052479 -0.102281
v 0.114526 0.012789 -0.097164
v 0.122155 0.013167 -0.097872
v 0.113262 0.011529 -0.113652
v 0.120890 0.011907 -0.114360
v 0.037954 0.041391 -0.077613
v 0.036358 0.019593 -0.082541
v 0.037317 0.057771 -0.094900
v 0.111822 0.021483 -0.126424
v 0.120890 0.011907 -0.114360
v 0.119386 0.021861 -0.127024
v 0.113262 0.011529 -0.113652
v 0.118818 0.051093 -0.118251
v 0.111822 0.021483 -0.126424
v 0.119386 0.021861 -0.127024
v 0.111082 0.050715 -0.117608
v 0.118818 0.051093 -0.118251
v 0.112325 0.052101 -0.101573
v 0.111082 0.050715 -0.117608
v 0.119953 0.052479 -0.102281
v 0.091650 0.015939 -0.108998
v 0.065795 0.026145 -0.125416
v 0.066411 0.013167 -0.109317
v 0.091182 0.025389 -0.120451
v 0.040472 0.027027 -0.130488
v 0.065795 0.026145 -0.125416
v 0.041228 0.041517 -0.129299
v 0.066411 0.013167 -0.109317
v 0.033359 0.028287 -0.123297
v 0.035041 0.051471 -0.118023
v 0.113851 0.042021 -0.088456
v 0.112325 0.052101 -0.101573
v 0.119953 0.052479 -0.102281
v 0.041302 0.010521 -0.109851
v 0.066411 0.013167 -0.109317
v 0.040472 0.027027 -0.130488
v 0.037317 0.057771 -0.094900
v 0.035041 0.051471 -0.118023
v 0.034103 0.012537 -0.105210
v 0.036358 0.019593 -0.082541
v 0.033359 0.028287 -0.123297
v 0.122155 0.013167 -0.097872
v 0.113262 0.011529 -0.113652
v 0.120890 0.011907 -0.114360
v 0.114526 0.012789 -0.097164
v 0.121414 0.042399 -0.089056
v 0.113851 0.042021 -0.088456
v 0.119953 0.052479 -0.102281
v 0.067779 0.050337 -0.119666
v 0.042391 0.055125 -0.123896
v 0.069430 0.054495 -0.099418
v 0.041228 0.041517 -0.129299
v 0.066529 0.038745 -0.124680
v 0.065795 0.026145 -0.125416
v 0.091182 0.025389 -0.120451
v 0.066529 0.038745 -0.124680
v 0.091765 0.036099 -0.119954
v 0.091182 0.025389 -0.120451
v 0.093037 0.045801 -0.115221
v 0.067779 0.050337 -0.119666
v 0.094043 0.048321 -0.100504
v 0.069430 0.054495 -0.099418
v 0.037317 0.057771 -0.094900
v 0.037954 0.041391 -0.077613
v 0.036358 0.019593 -0.082541
v 0.065795 0.026145 -0.125416
v 0.040472 0.027027 -0.130488
v 0.041228 0.041517 -0.129299
v 0.066411 0.013167 -0.109317
v 0.091650 0.015939 -0.108998
v 0.111822 0.021483 -0.126424
v 0.118818 0.051093 -0.118251
v 0.119386 0.021861 -0.127024
v 0.111082 0.050715 -0.117608
v 0.112325 0.052101 -0.101573
v 0.118818 0.051093 -0.118251
v 0.111082 0.050715 -0.117608
v 0.119953 0.052479 -0.102281
v 0.035041 0.051471 -0.118023
v 0.033359 0.028287 -0.123297
v 0.119386 0.021861 -0.127024
v 0.120890 0.011907 -0.114360
v 0.111822 0.021483 -0.126424
v 0.120890 0.011907 -0.114360
v 0.113262 0.011529 -0.113652
v 0.111822 0.021483 -0.126424
v 0.119953 0.052479 -0.102281
v 0.112325 0.052101 -0.101573
v 0.113851 0.042021 -0.088456
v 0.069430 0.054495 -0.099418
v 0.042391 0.055125 -0.123896
v 0.044925 0.060543 -0.098267
v 0.040472 0.027027 -0.130488
v 0.066411 0.013167 -0.109317
v 0.041302 0.010521 -0.109851
v 0.091650 0.015939 -0.108998
v 0.065795 0.026145 -0.125416
v 0.091182 0.025389 -0.120451
vn -0.0371 0.9739 -0.2240
vn 0.4243 0.6012 0.6771
vn 0.8034 0.5897 -0.0825
vn -0.2365 0.8857 -0.3996
vn -0.0686 0.2676 -0.9611
vn -0.3151 -0.1603 -0.9354
vn -0.0435 -0.6873 -0.7251
vn 0.3561 -0.9287 0.1034
vn 0.2527 -0.8787 0.4050
vn 0.4604 -0.2686 0.8461
vn 0.1397 -0.8690 0.4747
vn 0.0112 0.5375 0.8432
vn -0.0992 -0.8068 0.5824
vn -0.4498 0.0312 0.8926
vn -0.0197 -0.6968 0.7170
vn -0.2450 0.5141 0.8220
vn 0.6279 0.1815 0.7568
vn 0.5458 -0.8342 0.0791
vn 0.6925 0.6556 -0.3010
vn 0.7069 0.7071 0.0157
vn 0.6342 -0.5590 0.5341
vn -0.1225 -0.0496 0.9912
vn -0.0766 -0.0425 0.9962
vn -0.9836 0.1496 0.1008
vn -0.8477 0.4997 -0.1782
vn -0.3434 0.8623 -0.3722
vn -0.5904 0.4596 -0.6635
vn -0.2750 -0.1334 -0.9521
vn -0.1813 -0.6524 -0.7359
vn 0.3835 -0.9146 0.1282
vn 0.0492 -0.9863 -0.1574
vn 0.5043 -0.6304 0.5901
vn 0.6471 -0.2939 0.7035
vn 0.6891 0.6590 -0.3015
vn 0.6385 -0.7447 0.1941
vn -0.0583 0.3176 0.9464
vn 0.6880 0.6585 -0.3051
vn -0.2327 0.9713 0.0487
vn 0.7295 0.6838 0.0179
vn -0.2991 0.9072 0.2958
vn -0.2391 0.8956 -0.3751
vn -0.3534 0.7732 0.5266
vn 0.1829 0.2819 0.9418
vn 0.0943 -0.8136 0.5738
vn 0.0944 -0.8135 0.5739
vn 0.1839 0.2816 0.9417
vn 0.1572 0.9636 0.2162
vn 0.0776 0.8022 -0.5920
vn 0.0777 0.7990 -0.5962
vn -0.0075 -0.2908 -0.9567
vn 0.0373 0.3607 0.9319
vn 0.7819 0.5460 -0.3009
vn 0.0917 -0.8548 0.5108
vn -0.0829 -0.8047 0.5878
vn -0.0727 0.2882 0.9548
vn 0.0919 -0.9641 0.2490
vn 0.1411 0.5896 0.7953
vn 0.4458 -0.3004 0.8432
vn 0.5193 0.5344 0.6669
vn 0.1886 -0.7255 -0.6619
vn 0.7153 -0.6871 -0.1274
vn 0.7846 0.5463 -0.2934
vn 0.2161 0.9346 -0.2825
vn 0.0670 -0.3336 -0.9403
vn 0.0788 0.7826 -0.6175
vn -0.0166 0.2623 -0.9648
vn 0.0342 0.9780 -0.2057
vn -0.1236 -0.8085 0.5753
vn -0.0234 -0.6937 0.7199
vn 0.3758 -0.5811 -0.7219
vn 0.0851 -0.5854 -0.8063
vn 0.1168 -0.8621 0.4931
vn -0.0057 -0.7423 -0.6700
vn 0.2068 -0.8687 0.4501
vn 0.1297 0.8788 -0.4593
vn -0.0468 0.1919 -0.9803
vn 0.0749 -0.6057 -0.7921
vn 0.3801 -0.6563 -0.6518
vn 0.2375 0.9365 -0.2579
vn 0.8327 -0.5164 -0.1998
vn 0.6270 0.1778 0.7585
vn -0.0286 0.6539 0.7560
vn -0.0622 0.1836 -0.9810
vn 0.1666 0.8103 -0.5618
vn 0.2930 0.9016 -0.3182
vn -0.4285 0.1257 0.8948
vn -0.2449 0.5104 0.8243
vn 0.8156 0.5748 -0.0668
vn 0.4512 0.5626 0.6928
vn 0.4621 -0.2835 0.8403
vn 0.3206 -0.9436 0.0830
vn 0.6074 -0.5545 0.5688
vn 0.3738 -0.7214 0.5830
vn 0.0956 0.2237 0.9700
vn 0.0217 -0.7310 0.6820
vn 0.0954 0.2237 0.9700
vn 0.0739 0.9548 0.2879
vn 0.0737 0.9548 0.2879
vn -0.0216 0.7310 -0.6820
vn 0.0739 0.9548 0.2878
vn 0.0954 0.2238 0.9700
vn 0.0216 -0.7311 0.6819
vn -0.0738 -0.9548 -0.2878
vn -0.0217 0.7311 -0.6819
vn -0.0954 -0.2237 -0.9700
vn 0.0190 -0.9727 -0.2311
vn -0.0076 -0.2908 -0.9568
vn 0.0180 -0.9727 -0.2313
vn 0.0944 -0.8136 0.5738
vn 0.1570 0.9636 0.2162
vn 0.1840 0.2817 0.9417
vn 0.0946 -0.8110 0.5774
vn 0.0191 -0.9727 -0.2312
vn 0.0783 0.8020 -0.5921
vn 0.2055 0.9377 0.2802
vn 0.1381 0.7196 -0.6805
vn 0.1896 0.9269 0.3239
vn 0.2126 0.2466 0.9455
vn 0.2330 0.2948 0.9267
vn 0.1301 -0.5435 0.8293
vn 0.2086 0.9212 -0.3285
vn 0.0370 0.3568 0.9335
vn -0.0662 0.3197 0.9452
vn 0.1220 0.6116 0.7817
vn 0.0727 0.7665 -0.6381
vn 0.0549 0.9689 -0.2412
vn -0.0575 -0.9956 -0.0742
vn 0.0958 0.2516 0.9631
vn 0.0719 0.9628 0.2605
vn -0.0418 0.5660 -0.8234
vn -0.0993 -0.4294 -0.8976
vn -0.0717 -0.9628 -0.2605
vn -0.0958 -0.2516 -0.9631
vn -0.0240 0.7112 -0.7025
vn 0.0835 0.8953 0.4375
vn 0.0888 0.0644 0.9940
vn 0.1273 0.7124 -0.6901
vn 0.1923 0.9443 0.2670
vn 0.1332 0.7051 -0.6965
vn 0.0582 -0.1131 -0.9919
vn 0.0265 -0.5064 -0.8619
vn -0.0571 0.3261 0.9436
vn 0.6359 -0.7568 0.1515
vn -0.1955 -0.0832 0.9772
vn -0.4282 0.8619 0.2716
vn -0.2250 0.9731 0.0497
vn -0.0737 -0.9548 -0.2880
vn -0.0955 -0.2237 -0.9700
vn -0.0737 -0.9548 -0.2879
vn 0.0215 -0.7311 0.6820
vn 0.0150 -0.9729 -0.2308
vn 0.0905 -0.8111 0.5779
vn 0.1799 0.2821 0.9424
vn 0.1530 0.9642 0.2164
vn 0.0741 0.8027 -0.5918
vn 0.0836 0.8934 0.4415
vn 0.0717 0.9628 0.2606
vn 0.0958 0.2515 0.9631
vn 0.0887 0.0600 0.9943
vn 0.0221 -0.9731 -0.2294
vn 0.0276 -0.9663 -0.2560
vn 0.0217 -0.5129 -0.8582
vn 0.0527 -0.1194 -0.9914
vn 0.0139 -0.9733 -0.2289
vn 0.1431 -0.5441 0.8267
vn 0.0982 -0.8534 0.5119
vn 0.0305 -0.9683 -0.2478
vn 0.2633 -0.6957 -0.6683
vn -0.1902 -0.8186 0.5420
vn 0.0917 -0.8501 0.5187
vn 0.7171 -0.6859 -0.1235
vn 0.0456 -0.9757 0.2143
vn 0.1485 -0.6497 -0.7456
vn 0.0751 -0.3127 -0.9469
vn 0.0094 0.2460 -0.9692
vn 0.0840 0.8934 0.4414
vn -0.0239 0.7113 -0.7025
vn 0.0718 0.9628 0.2606
vn -0.0240 0.7113 -0.7025
vn -0.0422 0.5624 -0.8258
vn 0.0717 0.9628 0.2605
vn -0.0958 -0.2515 -0.9631
vn -0.0421 0.5624 -0.8258
vn -0.0993 -0.4335 -0.8957
vn -0.0421 0.5623 -0.8259
vn 0.0957 0.2516 0.9631
vn 0.0240 -0.7112 0.7026
vn 0.0240 -0.7112 0.7025
vn 0.0887 0.0600 0.9942
vn -0.0572 -0.9959 -0.0699
vn -0.0993 -0.4335 -0.8956
vn -0.0718 -0.9628 -0.2605
vn 0.0050 -0.8333 0.5529
vn 0.0887 0.0601 0.9942
vn 0.0239 -0.7112 0.7026
vn 0.0048 -0.8333 0.5528
vn 0.0050 -0.8332 0.5529
vn -0.0571 -0.9959 -0.0700
vn 0.0052 -0.8309 0.5564
vn -0.0718 -0.9628 -0.2606
vn 0.0889 0.0644 0.9940
vn 0.2315 0.2273 0.9459
vn 0.0861 -0.8662 0.4921
vn 0.1389 -0.5783 0.8039
vn 0.7153 -0.6885 -0.1197
vn 0.0879 -0.8541 0.5127
vn 0.7819 0.5459 -0.3010
vn 0.8358 -0.5100 -0.2033
vn 0.6068 -0.5788 -0.5448
vn -0.0240 -0.6917 0.7218
vn 0.6289 0.1808 0.7561
vn 0.8333 -0.5126 -0.2070
vn -0.0228 -0.6948 0.7189
vn 0.6271 0.1779 0.7584
vn -0.2445 0.5106 0.8243
vn 0.2940 0.9130 -0.2829
vn 0.7826 0.5481 -0.2952
vn 0.0372 0.3568 0.9335
vn 0.2954 0.9028 -0.3126
vn 0.0602 0.9665 -0.2497
vn 0.1756 0.6115 0.7715
vn 0.5365 0.5392 0.6492
vn -0.0311 -0.8201 0.5714
vn 0.2446 -0.6850 -0.6862
vn 0.0601 -0.9611 0.2696
vn 0.0059 -0.7046 -0.7096
vn 0.1189 -0.5415 -0.8323
vn 0.0930 0.2395 -0.9664
vn 0.4502 -0.2771 0.8488
vn 0.0956 -0.9693 0.2264
vn -0.0199 0.2353 -0.9717
vn -0.0898 0.2296 -0.9691
vn 0.1513 0.5986 0.7866
vn 0.4864 -0.2611 0.8338
vn -0.2219 0.9235 0.3130
vn -0.0882 -0.0114 0.9960
vn -0.3516 0.7831 0.5130
vn 0.5972 -0.5982 0.5343
vn 0.4211 -0.7193 0.5525
vn -0.0125 0.0789 0.9968
vn 0.0216 -0.7311 0.6820
vn 0.0955 0.2237 0.9700
vn -0.0738 -0.9548 -0.2879
vn -0.0217 0.7311 -0.6820
vn -0.0216 0.7311 -0.6820
vn 0.0787 0.8046 -0.5885
vn -0.0120 -0.2905 -0.9568
vn 0.0148 -0.9729 -0.2309
vn 0.0740 0.8027 -0.5918
vn -0.2424 -0.8289 0.5041
vn -0.2232 -0.9485 0.2247
vn -0.2194 -0.9511 0.2175
vn -0.2410 -0.7413 0.6264
vn -0.2054 -0.2088 0.9561
vn -0.2018 -0.2107 0.9565
vn -0.1620 0.4053 0.8997
vn -0.1710 0.2583 0.9508
vn -0.2474 -0.7385 0.6272
vn -0.2261 -0.9501 0.2151
vn -0.2167 -0.9563 0.1962
vn -0.2335 -0.6520 0.7214
vn -0.2077 -0.2195 0.9532
vn -0.2011 -0.2288 0.9525
vn -0.1773 0.2408 0.9542
vn -0.0777 -0.0923 -0.9927
vn 0.0123 -0.9143 -0.4049
vn -0.0437 -0.5108 -0.8586
vn -0.0940 0.6193 -0.7795
vn -0.0786 0.8960 -0.4370
vn -0.0365 0.9858 0.1639
vn -0.0126 0.9105 0.4134
vn 0.0598 0.3040 0.9508
vn 0.0603 0.3040 0.9508
vn -0.0065 0.9095 0.4156
vn -0.0332 0.9855 0.1665
vn 0.0872 -0.7730 0.6283
vn 0.0640 0.3030 0.9508
vn 0.0611 0.3029 0.9511
vn 0.0908 -0.7729 0.6280
vn 0.0860 -0.7731 0.6285
vn 0.0892 -0.7729 0.6282
vn 0.0370 -0.9877 -0.1519
vn 0.0163 -0.9153 -0.4025
vn -0.0978 0.7689 0.6319
vn -0.0913 0.7731 0.6277
vn -0.1604 0.4001 0.9023
vn -0.1804 0.2387 0.9542
vn -0.1443 0.5467 0.8248
vn -0.2035 -0.2033 0.9577
vn -0.1622 0.4073 0.8988
vn -0.1005 0.7722 0.6274
vn -0.0494 -0.5181 -0.8539
vn 0.0100 -0.9143 -0.4050
vn 0.0291 -0.9876 -0.1542
vn -0.0971 0.7737 0.6261
vn -0.1421 0.5532 0.8208
vn -0.0954 0.7758 0.6238
vn 0.0786 -0.8950 0.4392
vn 0.0088 -0.9107 -0.4130
vn 0.0331 -0.9860 -0.1636
vn 0.0939 -0.6211 0.7781
vn 0.0752 0.0944 0.9927
vn 0.0466 0.5094 0.8593
vn -0.0100 0.9143 0.4048
vn 0.2411 0.7413 -0.6264
vn 0.2169 0.9522 -0.2149
vn 0.2418 0.8290 -0.5043
vn 0.2056 0.2089 -0.9561
vn 0.2021 0.2106 -0.9565
vn 0.1628 -0.4041 -0.9001
vn 0.1717 -0.2583 -0.9507
vn 0.2078 0.2162 -0.9540
vn 0.1793 -0.2409 -0.9539
vn 0.2009 0.2288 -0.9525
vn 0.2327 0.6530 -0.7207
vn 0.2475 0.7385 -0.6272
vn 0.2166 0.9563 -0.1963
vn 0.2260 0.9501 -0.2151
vn 0.1606 -0.4093 -0.8982
vn 0.2025 0.2034 -0.9579
vn 0.1444 -0.5456 -0.8255
vn 0.0945 -0.7730 -0.6273
vn 0.0900 -0.7771 -0.6229
vn -0.0639 -0.3030 -0.9508
vn -0.0882 0.7730 -0.6282
vn -0.0882 0.7730 -0.6283
vn -0.0341 0.9879 0.1516
vn -0.0885 0.7730 -0.6283
vn -0.0885 0.7730 -0.6282
vn -0.0099 0.9155 0.4021
vn -0.0640 -0.3041 -0.9505
vn -0.0640 -0.3042 -0.9505
vn 0.0088 -0.9094 -0.4159
vn 0.0086 -0.9094 -0.4159
vn -0.0644 -0.3042 -0.9504
vn 0.0329 -0.9855 -0.1664
vn -0.0098 0.9143 0.4048
vn 0.0464 0.5180 0.8541
vn -0.0340 0.9874 0.1546
vn 0.2215 0.9500 -0.2200
vn 0.2233 0.9486 -0.2244
vn 0.2432 0.8328 -0.4972
vn 0.1420 -0.5532 -0.8209
vn 0.0969 -0.7739 -0.6259
vn 0.0955 -0.7758 -0.6237
vn 0.1042 -0.7638 -0.6370
vn 0.1761 -0.2387 -0.9550
vn 0.1645 -0.3859 -0.9078
vt 0.140020 0.348407
vt 0.103560 0.359254
vt 0.062600 0.346637
vt 0.120286 0.290407
vt 0.184457 0.335187
vt 0.253128 0.230422
vt 0.274913 0.289054
vt 0.303337 0.207422
vt 0.306938 0.275805
vt 0.407562 0.263852
vt 0.316321 0.305261
vt 0.417223 0.296325
vt 0.331759 0.350897
vt 0.431290 0.343610
vt 0.347950 0.390728
vt 0.443493 0.384628
vt 0.451290 0.410835
vt 0.439869 0.155662
vt 0.494310 0.062178
vt 0.489592 0.146590
vt 0.438756 0.209691
vt 0.397945 0.142397
vt 0.362158 0.235945
vt 0.323273 0.164263
vt 0.292757 0.194501
vt 0.265911 0.079472
vt 0.208045 0.143913
vt 0.131850 0.022262
vt 0.105984 0.082966
vt 0.080940 0.000861
vt 0.052401 0.050968
vt 0.000860 0.020190
vt 0.215153 0.620051
vt 0.185850 0.602037
vt 0.267583 0.531165
vt 0.255866 0.601890
vt 0.248598 0.659488
vt 0.274703 0.624102
vt 0.332890 0.629310
vt 0.328343 0.587187
vt 0.407581 0.659488
vt 0.380701 0.560709
vt 0.307615 0.388802
vt 0.388222 0.400355
vt 0.380069 0.454426
vt 0.299551 0.442285
vt 0.228859 0.376927
vt 0.220707 0.430998
vt 0.142463 0.363900
vt 0.134310 0.417971
vt 0.042624 0.404146
vt 0.257172 0.726459
vt 0.277382 0.726459
vt 0.257172 0.758554
vt 0.217351 0.758554
vt 0.217351 0.726459
vt 0.166235 0.758554
vt 0.166235 0.726459
vt 0.132356 0.758554
vt 0.131759 0.726459
vt 0.873526 0.228870
vt 0.873526 0.165866
vt 0.919888 0.165866
vt 0.919888 0.228870
vt 0.873526 0.260965
vt 0.919888 0.260371
vt 0.873526 0.308516
vt 0.919888 0.308516
vt 0.924263 0.208222
vt 0.922402 0.165266
vt 0.962344 0.208481
vt 0.960719 0.238750
vt 0.923465 0.256392
vt 0.957017 0.285574
vt 0.922402 0.287288
vt 0.268041 0.863677
vt 0.315592 0.863677
vt 0.287062 0.962344
vt 0.256749 0.962344
vt 0.235946 0.863677
vt 0.196122 0.959966
vt 0.172942 0.863677
vt 0.634015 0.100935
vt 0.600730 0.133030
vt 0.600730 0.084887
vt 0.600730 0.051602
vt 0.634015 0.051602
vt 0.634015 0.008807
vt 0.872544 0.527150
vt 0.910619 0.510368
vt 0.944150 0.542389
vt 0.945361 0.660904
vt 0.884547 0.591333
vt 0.862983 0.660904
vt 0.363401 0.001162
vt 0.447207 0.000873
vt 0.363230 0.048117
vt 0.283585 0.047828
vt 0.283755 0.000873
vt 0.196212 0.047510
vt 0.876443 0.665466
vt 0.956683 0.665466
vt 0.956683 0.789688
vt 0.876443 0.789688
vt 0.814258 0.255108
vt 0.814258 0.342481
vt 0.868940 0.342481
vt 0.868940 0.255108
vt 0.814258 0.175462
vt 0.868346 0.175462
vt 0.394844 0.874917
vt 0.314604 0.874917
vt 0.314604 0.999140
vt 0.394844 0.999140
vt 0.638612 0.158788
vt 0.643921 0.342481
vt 0.565887 0.303178
vt 0.494754 0.267350
vt 0.567479 0.122960
vt 0.494754 0.086331
vt 0.331330 0.503421
vt 0.369370 0.457654
vt 0.369370 0.497476
vt 0.369370 0.548592
vt 0.331330 0.534922
vt 0.331330 0.583067
vt 0.001729 0.566085
vt 0.066515 0.453750
vt 0.001729 0.416898
vt 0.066515 0.528639
vt 0.398102 0.999140
vt 0.478342 0.999140
vt 0.478342 0.874917
vt 0.398102 0.874917
vt 0.504185 0.571409
vt 0.591559 0.733080
vt 0.504185 0.733080
vt 0.411463 0.733080
vt 0.411463 0.571409
vt 0.782926 0.923850
vt 0.837606 0.877489
vt 0.847712 0.920283
vt 0.847712 0.959514
vt 0.782926 0.952974
vt 0.821985 0.610326
vt 0.821985 0.697699
vt 0.868940 0.610326
vt 0.868940 0.530680
vt 0.821985 0.530680
vt 0.561839 0.874917
vt 0.481599 0.874917
vt 0.481599 0.999140
vt 0.561839 0.999140
vt 0.733080 0.363710
vt 0.648085 0.363710
vt 0.648085 0.183614
vt 0.733080 0.183614
vt 0.951022 0.162749
vt 0.951022 0.001078
vt 0.863649 0.001078
vt 0.863649 0.162749
vt 0.862885 0.346390
vt 0.942531 0.346390
vt 0.942531 0.508061
vt 0.862885 0.508061
vt 0.269570 0.594389
vt 0.302855 0.594389
vt 0.302855 0.551595
vt 0.269570 0.534358
vt 0.224283 0.189612
vt 0.224283 0.156327
vt 0.257569 0.205661
vt 0.224283 0.237755
vt 0.458529 0.090574
vt 0.278433 0.090574
vt 0.458529 0.005579
vt 0.396177 0.227485
vt 0.481172 0.227485
vt 0.481172 0.407581
vt 0.690623 0.366176
vt 0.690623 0.546272
vt 0.605628 0.366176
vt 0.341066 0.639594
vt 0.341066 0.724588
vt 0.160970 0.724588
vt 0.583067 0.444376
vt 0.583067 0.314699
vt 0.545653 0.379503
vt 0.655161 0.741571
vt 0.655161 0.561475
vt 0.740156 0.741571
vt 0.741571 0.550154
vt 0.741571 0.730249
vt 0.656576 0.550154
vt 0.693372 0.546272
vt 0.693372 0.366176
vt 0.778367 0.546272
vt 0.407581 0.781197
vt 0.227486 0.781197
vt 0.407581 0.696202
vt 0.781197 0.367591
vt 0.781197 0.547687
vt 0.696202 0.367591
vt 0.652413 0.792519
vt 0.472317 0.792519
vt 0.652413 0.707524
vt 0.323047 0.159919
vt 0.279509 0.092517
vt 0.427394 0.092517
vt 0.792519 0.829968
vt 0.792519 0.911396
vt 0.630848 0.911396
vt 0.195299 0.028541
vt 0.177695 0.039626
vt 0.177695 0.001698
vt 0.175486 0.884687
vt 0.175486 0.945362
vt 0.131711 0.906035
vt 0.585494 0.316455
vt 0.602880 0.412652
vt 0.585494 0.421733
vt 0.068610 0.463597
vt 0.101895 0.480834
vt 0.068610 0.523628
vt 0.462945 0.021909
vt 0.500985 0.039146
vt 0.462945 0.084913
vt 0.000905 0.024229
vt 0.035380 0.062269
vt 0.000905 0.062269
vt 0.554763 0.304416
vt 0.527171 0.345312
vt 0.527171 0.285800
vt 0.516402 0.582833
vt 0.561839 0.570931
vt 0.561839 0.673641
vt 0.059109 0.393429
vt 0.059109 0.347191
vt 0.083498 0.370707
vt 0.001415 0.002830
vt 0.460895 0.185204
vt 0.489663 0.158532
vt 0.489663 0.236340
vt 0.001957 0.887032
vt 0.075007 0.906193
vt 0.001957 0.968005
vt 0.611372 0.875709
vt 0.611372 0.959514
vt 0.563822 0.875709
vt 0.225019 0.679718
vt 0.183658 0.602754
vt 0.183658 0.701945
vt 0.934606 0.336835
vt 0.976496 0.254115
vt 0.976496 0.358049
vt 0.751477 0.843466
vt 0.704522 0.843466
vt 0.704522 0.756093
vt 0.631184 0.639038
vt 0.589294 0.721758
vt 0.589294 0.617825
vt 0.745417 0.614728
vt 0.792519 0.534861
vt 0.792519 0.642506
vt 0.286207 0.286401
vt 0.329744 0.353803
vt 0.181860 0.353803
vt 0.498326 0.567500
vt 0.385989 0.567500
vt 0.385989 0.428417
vt 0.498326 0.428417
vt 0.566085 0.567500
vt 0.566085 0.428417
vt 0.498326 0.291712
vt 0.068810 0.573732
vt 0.181147 0.573732
vt 0.181147 0.710436
vt 0.068810 0.710436
vt 0.001051 0.573732
vt 0.001051 0.710436
vt 0.736846 0.183811
vt 0.736846 0.353803
vt 0.812332 0.183811
vt 0.812332 0.353803
vt 0.819408 0.650831
vt 0.743922 0.650831
vt 0.743922 0.820823
vt 0.819408 0.820823
vt 0.784963 0.001248
vt 0.784963 0.171241
vt 0.860449 0.171241
vt 0.860449 0.001248
vt 0.784963 0.527874
vt 0.860449 0.527874
vt 0.860449 0.357882
vt 0.784963 0.357882
vt 0.876896 0.853944
vt 0.876896 0.990648
vt 0.989233 0.990648
vt 0.989233 0.853944
vt 0.652413 0.475044
vt 0.599701 0.432468
vt 0.565021 0.583242
vt 0.652413 0.653828
vt 0.000936 0.240586
vt 0.076422 0.070594
vt 0.000936 0.070594
vt 0.295954 0.543441
vt 0.366540 0.456050
vt 0.187756 0.456050
vt 0.353803 0.860449
vt 0.183811 0.860449
vt 0.183811 0.784963
vt 0.353803 0.784963
vt 0.108210 0.482939
vt 0.037624 0.570330
vt 0.216408 0.570330
vt 0.258984 0.517618
vt 0.150785 0.430227
vt 0.001862 0.397042
vt 0.781197 0.001052
vt 0.644492 0.068810
vt 0.644492 0.001052
vt 0.781197 0.068810
vt 0.644492 0.181147
vt 0.781197 0.181147
vt 0.030156 0.218140
vt 0.086583 0.074087
vt 0.132478 0.123935
vt 0.106244 0.300785
vt 0.005673 0.393378
vt 0.527874 0.796285
vt 0.527874 0.871771
vt 0.357882 0.871771
vt 0.357882 0.796285
vt 0.531953 0.796285
vt 0.701945 0.796285
vt 0.701945 0.871771
vt 0.531953 0.871771
vt 0.874601 0.873186
vt 0.799115 0.873186
vt 0.874601 0.703193
vt 0.171241 0.880262
vt 0.001248 0.804776
vt 0.171241 0.804776
vt 0.001248 0.807607
vt 0.171241 0.883092
vt 0.001248 0.883092
vt 0.458061 0.001767
vt 0.566259 0.089158
vt 0.636845 0.001767
vt 0.000948 0.801010
vt 0.071534 0.713619
vt 0.179732 0.801010
vt 0.135396 0.103272
vt 0.222188 0.174593
vt 0.135396 0.280212
s 1
usemtl TidusArmMat
f 9/1/1 10/3/3 11/2/2
f 10/3/3 9/1/1 12/4/4
f 13/5/5 12/4/4 9/1/1
f 12/4/4 13/5/5 14/6/6
f 15/7/7 14/6/6 13/5/5
f 14/6/6 15/7/7 16/8/8
f 17/9/9 16/8/8 15/7/7
f 16/8/8 17/9/9 18/10/10
f 19/11/11 18/10/10 17/9/9
f 18/10/10 19/11/11 20/12/12
f 21/13/13 20/12/12 19/11/11
f 20/12/12 21/13/13 22/14/14
f 23/15/15 22/14/14 21/13/13
f 22/14/14 23/15/15 24/16/16
f 25/17/17 24/16/16 23/15/15
f 26/18/18 27/20/20 28/19/19
f 27/20/20 26/18/18 29/21/21
f 30/22/22 29/21/21 26/18/18
f 29/21/21 30/22/22 31/23/23
f 32/24/24 31/23/23 30/22/22
f 31/23/23 32/24/24 33/25/25
f 34/26/26 33/25/25 32/24/24
f 33/25/25 34/26/26 35/27/27
f 36/28/28 35/27/27 34/26/26
f 35/27/27 36/28/28 37/29/29
f 38/30/30 37/29/29 36/28/28
f 37/29/29 38/30/30 39/31/31
f 40/32/32 39/31/31 38/30/30
f 41/33/33 42/35/35 43/34/34
f 42/35/35 41/33/33 44/36/36
f 45/37/37 44/36/36 41/33/33
f 44/36/36 45/37/37 46/38/38
f 47/39/39 46/38/38 45/37/37
f 46/38/38 47/39/39 48/40/40
f 49/41/41 48/40/40 47/39/39
f 48/40/40 49/41/41 50/42/42
f 51/43/43 52/45/45 53/44/44
f 52/45/45 51/43/43 54/46/46
f 55/47/47 54/46/46 51/43/43
f 54/46/46 55/47/47 56/48/47
f 57/49/48 56/48/47 55/47/47
f 56/48/47 57/49/48 58/50/49
f 59/51/50 58/50/49 57/49/48
f 60/52/51 61/54/53 62/53/52
f 61/54/53 60/52/51 63/55/54
f 64/56/55 63/55/54 60/52/51
f 63/55/54 64/56/55 65/57/56
f 66/58/57 65/57/56 64/56/55
f 65/57/56 66/58/57 67/59/58
f 68/60/59 67/59/58 66/58/57
f 69/61/60 70/63/62 71/62/61
f 70/63/62 69/61/60 72/64/63
f 73/65/64 72/64/63 69/61/60
f 72/64/63 73/65/64 74/66/65
f 75/67/66 74/66/65 73/65/64
f 74/66/65 75/67/66 76/68/67
f 77/69/68 78/71/70 79/70/69
f 78/71/70 77/69/68 80/72/71
f 81/73/72 80/72/71 77/69/68
f 80/72/71 81/73/72 82/74/73
f 83/75/74 82/74/73 81/73/72
f 84/76/75 85/78/77 86/77/76
f 85/78/77 84/76/75 87/79/78
f 88/80/79 87/79/78 84/76/75
f 87/79/78 88/80/79 89/81/80
f 90/82/81 89/81/80 88/80/79
f 91/83/82 92/85/84 93/84/83
f 92/85/84 91/83/82 94/86/85
f 95/87/86 94/86/85 91/83/82
f 94/86/85 95/87/86 96/88/87
f 97/89/88 98/91/90 99/90/89
f 98/91/90 97/89/88 100/92/91
f 101/93/92 100/92/91 97/89/88
f 100/92/91 101/93/92 102/94/93
f 103/95/94 104/97/96 105/96/95
f 104/97/96 103/95/94 106/98/97
f 107/99/98 106/98/97 103/95/94
f 106/98/97 107/99/98 108/100/99
f 109/101/100 110/103/102 111/102/101
f 110/103/102 109/101/100 112/104/103
f 113/102/104 112/104/103 109/101/100
f 112/104/103 113/102/104 114/103/105
f 115/105/106 116/107/107 117/106/107
f 116/107/107 115/105/106 118/108/108
f 119/109/109 118/108/108 115/105/106
f 118/108/108 119/109/109 120/110/109
f 121/111/110 122/113/112 123/112/111
f 122/113/112 121/111/110 124/114/113
f 125/112/114 124/114/113 121/111/110
f 124/114/113 125/112/114 126/113/107
f 127/115/115 128/117/117 129/116/116
f 128/117/117 127/115/115 130/118/118
f 131/119/119 130/118/118 127/115/115
f 130/118/118 131/119/119 132/120/120
f 133/121/121 134/123/123 135/122/122
f 134/123/123 133/121/121 136/124/124
f 137/125/125 136/124/124 133/121/121
f 136/124/124 137/125/125 138/126/126
f 139/127/127 140/129/129 141/128/128
f 140/129/129 139/127/127 142/128/130
f 143/130/131 142/128/130 139/127/127
f 144/131/132 145/133/134 146/132/133
f 145/133/134 144/131/132 147/134/135
f 148/133/136 147/134/135 144/131/132
f 149/135/137 150/137/139 151/136/138
f 150/137/139 149/135/137 152/138/140
f 153/139/141 152/138/140 149/135/137
f 154/140/142 155/142/144 156/141/143
f 155/142/144 154/140/142 157/143/145
f 158/144/146 157/143/145 154/140/142
f 159/145/147 160/147/149 161/146/148
f 160/147/149 159/145/147 162/148/150
f 163/149/102 162/148/150 159/145/147
f 164/150/151 165/152/153 166/151/152
f 165/152/153 164/150/151 167/153/154
f 168/152/155 167/153/154 164/150/151
f 169/154/156 170/156/158 171/155/157
f 170/156/158 169/154/156 172/157/159
f 173/158/160 174/160/162 175/159/161
f 174/160/162 173/158/160 176/161/163
f 177/162/164 178/164/166 179/163/165
f 178/164/166 177/162/164 180/165/167
f 181/166/168 182/168/170 183/167/169
f 182/168/170 181/166/168 184/169/171
f 185/170/172 186/172/174 187/171/173
f 186/172/174 185/170/172 188/173/175
f 189/174/176 190/176/178 191/175/177
f 192/177/179 193/179/181 194/178/180
f 195/180/134 196/182/183 197/181/182
f 198/183/182 199/185/185 200/184/184
f 201/186/186 202/188/187 203/187/127
f 204/189/158 205/191/189 206/190/188
f 207/192/190 208/194/192 209/193/191
f 210/195/182 211/197/184 212/196/192
f 213/198/193 214/200/195 215/199/194
f 216/201/188 217/203/196 218/202/190
f 219/204/192 220/206/198 221/205/197
f 222/207/199 223/209/201 224/208/200
f 225/210/202 226/212/204 227/211/203
f 228/213/205 229/215/207 230/214/206
f 231/216/208 232/218/210 233/217/209
f 234/219/211 235/221/213 236/220/212
f 237/222/214 238/224/216 239/223/215
f 240/225/217 241/227/219 242/226/218
f 243/228/220 244/230/222 245/229/221
f 246/231/223 247/233/225 248/232/224
f 249/234/226 250/236/228 251/235/227
f 252/237/229 253/239/231 254/238/230
f 255/240/232 256/240/234 257/240/233
f 258/241/235 259/243/237 260/242/236
f 261/244/238 262/246/240 263/245/239
f 264/247/241 265/249/102 266/248/242
f 267/250/148 268/252/105 269/251/243
f 270/253/148 271/255/148 272/254/99
f 273/256/244 274/258/98 275/257/244
f 276/259/245 277/261/244 278/260/148
f 279/262/107 280/264/107 281/263/246
f 282/265/247 283/267/249 284/266/248
f 290/268/250 291/270/252 292/269/251
f 291/270/252 290/268/250 293/271/253
f 294/272/254 293/271/253 290/268/250
f 293/271/253 294/272/254 295/273/255
f 296/271/256 295/273/255 294/272/254
f 295/273/255 296/271/256 297/274/257
f 298/275/258 299/277/260 300/276/259
f 299/277/260 298/275/258 301/278/261
f 302/279/262 301/278/261 298/275/258
f 301/278/261 302/279/262 303/280/263
f 304/278/264 303/280/263 302/279/262
f 305/281/265 306/283/267 307/282/266
f 306/283/267 305/281/265 308/284/268
f 309/282/269 308/284/268 305/281/265
f 308/284/268 309/282/269 310/283/270
f 311/281/271 310/283/270 309/282/269
f 315/285/272 316/287/274 317/286/273
f 316/287/274 315/285/272 318/288/275
f 319/289/276 320/291/278 321/290/277
f 320/291/278 319/289/276 322/292/279
f 323/293/280 324/295/282 325/294/281
f 324/295/282 323/293/280 326/296/283
f 327/297/284 328/299/286 329/298/285
f 328/299/286 327/297/284 330/300/287
f 331/301/288 332/303/290 333/302/289
f 332/303/290 331/301/288 334/304/291
f 337/305/292 338/307/294 339/306/293
f 340/308/295 341/310/297 342/309/296
f 348/311/298 349/313/300 350/312/299
f 349/313/300 348/311/298 351/314/301
f 352/312/302 351/314/301 348/311/298
f 351/314/301 352/312/302 353/313/303
f 354/311/304 353/313/303 352/312/302
f 355/315/305 356/317/307 357/316/306
f 356/317/307 355/315/305 358/318/308
f 359/319/309 358/318/308 355/315/305
f 358/318/308 359/319/309 360/315/310
f 361/320/311 360/315/310 359/319/309
f 362/321/312 363/323/314 364/322/313
f 363/323/314 362/321/312 365/322/315
f 366/324/316 365/322/315 362/321/312
f 365/322/315 366/324/316 367/325/317
f 368/326/318 367/325/317 366/324/316
f 372/327/319 373/329/321 374/328/320
f 373/329/321 372/327/319 375/330/322
f 376/331/323 375/330/322 372/327/319
f 377/332/324 378/334/325 379/333/324
f 378/334/325 377/332/324 380/335/326
f 381/336/327 382/338/329 383/337/328
f 382/338/329 381/336/327 384/339/330
f 387/340/331 388/342/333 389/341/332
f 390/343/334 391/345/336 392/344/335
f 393/346/337 394/348/339 395/347/338
f 396/349/340 397/351/342 398/350/341
f 399/352/343 400/354/345 401/353/344
f 402/355/346 403/357/348 404/356/347
l 1 2
l 3 4
l 5 6
l 7 8
l 285 286
l 287 288
l 288 289
l 312 313
l 312 314
l 335 336
l 343 344
l 345 346
l 345 347
l 369 370
l 370 371
l 385 386
