# Blender 5.1.0
# www.blender.org
mtllib Crystal1.mtl
o Crystal_1
v -0.758588 0.096381 -2.074898
v -0.788268 0.099779 -2.080824
v -0.774080 0.111168 -2.071534
v -0.788268 0.099779 -2.080824
v -0.808394 0.092103 -2.057882
v -0.796165 0.112900 -2.064056
v -0.774080 0.111168 -2.071534
v -0.788268 0.099779 -2.080824
v -0.796165 0.112900 -2.064056
v -0.819443 -0.035250 -2.057333
v -0.812551 -0.061418 -2.059722
v -0.822904 -0.054835 -2.040960
v -0.771432 -0.061626 -2.015297
v -0.769654 -0.018852 -2.007786
v -0.790642 -0.061268 -2.022097
v -0.768847 0.100213 -2.023496
v -0.783099 0.116985 -2.048247
v -0.798683 0.092319 -2.029218
v -0.748955 0.091382 -2.046135
v -0.764044 0.107538 -2.041069
v -0.768847 0.100213 -2.023496
v -0.769654 -0.018852 -2.007786
v -0.803411 0.017481 -2.023674
v -0.790642 -0.061268 -2.022097
v -0.793263 -0.034502 -2.087148
v -0.791205 0.020827 -2.084543
v -0.754388 -0.035235 -2.079385
v -0.816377 -0.055068 -2.024406
v -0.790642 -0.061268 -2.022097
v -0.818747 -0.011418 -2.014675
v -0.790642 -0.061268 -2.022097
v -0.803411 0.017481 -2.023674
v -0.818747 -0.011418 -2.014675
v -0.726035 0.124124 -2.135653
v -0.738983 0.126912 -2.164487
v -0.737188 0.141264 -2.148391
v -0.738983 0.126912 -2.164487
v -0.771062 0.118743 -2.166419
v -0.756819 0.143135 -2.162523
v -0.737188 0.141264 -2.148391
v -0.738983 0.126912 -2.164487
v -0.756819 0.143135 -2.162523
v -0.788075 -0.031119 -2.159543
v -0.785869 -0.060135 -2.150118
v -0.807378 -0.051539 -2.148186
v -0.797849 -0.056479 -2.088714
v -0.797752 -0.007394 -2.089835
v -0.803895 -0.057019 -2.108952
v -0.774975 0.131507 -2.113460
v -0.761721 0.149277 -2.142497
v -0.789057 0.121040 -2.140904
v -0.744561 0.120299 -2.109496
v -0.756785 0.139162 -2.121034
v -0.774975 0.131507 -2.113460
v -0.797752 -0.007394 -2.089835
v -0.802340 0.033346 -2.132214
v -0.803895 -0.057019 -2.108952
v -0.747080 -0.031340 -2.155871
v -0.743744 0.033867 -2.159421
v -0.729836 -0.030625 -2.118561
v -0.817237 -0.050608 -2.132638
v -0.803895 -0.057019 -2.108952
v -0.821467 -0.000475 -2.135985
v -0.803895 -0.057019 -2.108952
v -0.802340 0.033346 -2.132214
v -0.821467 -0.000475 -2.135985
v -0.671975 0.032128 -2.116923
v -0.689797 0.031837 -2.135423
v -0.685299 0.038986 -2.122808
v -0.689797 0.031837 -2.135423
v -0.714218 0.026645 -2.128773
v -0.704249 0.038487 -2.128304
v -0.685299 0.038986 -2.122808
v -0.689797 0.031837 -2.135423
v -0.704249 0.038487 -2.128304
v -0.713277 -0.041951 -2.126848
v -0.715817 -0.060726 -2.121721
v -0.732473 -0.057702 -2.114048
v -0.708938 -0.057492 -2.071265
v -0.704048 -0.029217 -2.069586
v -0.718914 -0.058696 -2.085193
v -0.704148 0.034082 -2.086464
v -0.703169 0.041746 -2.111323
v -0.721394 0.027767 -2.104294
v -0.678890 0.030467 -2.092131
v -0.692854 0.038103 -2.096721
v -0.704148 0.034082 -2.086464
v -0.704048 -0.029217 -2.069586
v -0.722148 -0.012360 -2.098702
v -0.718914 -0.058696 -2.085193
v -0.680882 -0.040117 -2.134984
v -0.684555 -0.010469 -2.135164
v -0.657797 -0.037755 -2.110950
v -0.735959 -0.057182 -2.099450
v -0.718914 -0.058696 -2.085193
v -0.735061 -0.028697 -2.098269
v -0.718914 -0.058696 -2.085193
v -0.722148 -0.012360 -2.098702
v -0.735061 -0.028697 -2.098269
v -0.739689 0.020454 -2.071956
v -0.751139 0.013777 -2.068043
v -0.737234 0.012874 -2.065979
v -0.729220 0.013291 -2.075499
v -0.739689 0.020454 -2.071956
v -0.737234 0.012874 -2.065979
v -0.733640 0.014721 -2.088878
v -0.746969 0.013651 -2.091261
v -0.739689 0.020454 -2.071956
v -0.729220 0.013291 -2.075499
v -0.733640 0.014721 -2.088878
v -0.739689 0.020454 -2.071956
v -0.791205 0.020827 -2.084543
v -0.788268 0.099779 -2.080824
v -0.758588 0.096381 -2.074898
v -0.754388 -0.035235 -2.079385
v -0.754388 -0.035235 -2.079385
v -0.758588 0.096381 -2.074898
v -0.748955 0.091382 -2.046135
v -0.741464 -0.021355 -2.045062
v -0.769654 -0.018852 -2.007786
v -0.768847 0.100213 -2.023496
v -0.798683 0.092319 -2.029218
v -0.803411 0.017481 -2.023674
v -0.803411 0.017481 -2.023674
v -0.798683 0.092319 -2.029218
v -0.808394 0.092103 -2.057882
v -0.814891 0.017224 -2.057559
v -0.814891 0.017224 -2.057559
v -0.808394 0.092103 -2.057882
v -0.788268 0.099779 -2.080824
v -0.791205 0.020827 -2.084543
v -0.783099 0.116985 -2.048247
v -0.773696 0.116248 -2.051430
v -0.774080 0.111168 -2.071534
v -0.796165 0.112900 -2.064056
v -0.812551 -0.061418 -2.059722
v -0.819443 -0.035250 -2.057333
v -0.793263 -0.034502 -2.087148
v -0.789454 -0.061872 -2.086024
v -0.743890 -0.061823 -2.046012
v -0.741464 -0.021355 -2.045062
v -0.769654 -0.018852 -2.007786
v -0.771432 -0.061626 -2.015297
v -0.755123 -0.062074 -2.079168
v -0.754388 -0.035235 -2.079385
v -0.741464 -0.021355 -2.045062
v -0.743890 -0.061823 -2.046012
v -0.789454 -0.061872 -2.086024
v -0.793263 -0.034502 -2.087148
v -0.754388 -0.035235 -2.079385
v -0.755123 -0.062074 -2.079168
v -0.764044 0.107538 -2.041069
v -0.773696 0.116248 -2.051430
v -0.783099 0.116985 -2.048247
v -0.768847 0.100213 -2.023496
v -0.808394 0.092103 -2.057882
v -0.798683 0.092319 -2.029218
v -0.783099 0.116985 -2.048247
v -0.796165 0.112900 -2.064056
v -0.819443 -0.035250 -2.057333
v -0.814891 0.017224 -2.057559
v -0.791205 0.020827 -2.084543
v -0.793263 -0.034502 -2.087148
v -0.814891 0.017224 -2.057559
v -0.819443 -0.035250 -2.057333
v -0.822904 -0.054835 -2.040960
v -0.827922 -0.001793 -2.037294
v -0.812551 -0.061418 -2.059722
v -0.790642 -0.061268 -2.022097
v -0.816377 -0.055068 -2.024406
v -0.822904 -0.054835 -2.040960
v -0.816377 -0.055068 -2.024406
v -0.818747 -0.011418 -2.014675
v -0.827922 -0.001793 -2.037294
v -0.822904 -0.054835 -2.040960
v -0.803411 0.017481 -2.023674
v -0.814891 0.017224 -2.057559
v -0.827922 -0.001793 -2.037294
v -0.818747 -0.011418 -2.014675
v -0.741464 -0.021355 -2.045062
v -0.748955 0.091382 -2.046135
v -0.768847 0.100213 -2.023496
v -0.769654 -0.018852 -2.007786
v -0.743744 0.033867 -2.159421
v -0.738983 0.126912 -2.164487
v -0.726035 0.124124 -2.135653
v -0.729836 -0.030625 -2.118561
v -0.729836 -0.030625 -2.118561
v -0.726035 0.124124 -2.135653
v -0.744561 0.120299 -2.109496
v -0.749544 -0.011838 -2.088614
v -0.797752 -0.007394 -2.089835
v -0.774975 0.131507 -2.113460
v -0.789057 0.121040 -2.140904
v -0.802340 0.033346 -2.132214
v -0.802340 0.033346 -2.132214
v -0.789057 0.121040 -2.140904
v -0.771062 0.118743 -2.166419
v -0.781065 0.030630 -2.162376
v -0.781065 0.030630 -2.162376
v -0.771062 0.118743 -2.166419
v -0.738983 0.126912 -2.164487
v -0.743744 0.033867 -2.159421
v -0.761721 0.149277 -2.142497
v -0.753364 0.148481 -2.136479
v -0.737188 0.141264 -2.148391
v -0.756819 0.143135 -2.162523
v -0.785869 -0.060135 -2.150118
v -0.788075 -0.031119 -2.159543
v -0.747080 -0.031340 -2.155871
v -0.749790 -0.061639 -2.146739
v -0.755343 -0.057827 -2.084335
v -0.749544 -0.011838 -2.088614
v -0.797752 -0.007394 -2.089835
v -0.797849 -0.056479 -2.088714
v -0.734526 -0.060485 -2.113847
v -0.729836 -0.030625 -2.118561
v -0.749544 -0.011838 -2.088614
v -0.755343 -0.057827 -2.084335
v -0.749790 -0.061639 -2.146739
v -0.747080 -0.031340 -2.155871
v -0.729836 -0.030625 -2.118561
v -0.734526 -0.060485 -2.113847
v -0.756785 0.139162 -2.121034
v -0.753364 0.148481 -2.136479
v -0.761721 0.149277 -2.142497
v -0.774975 0.131507 -2.113460
v -0.771062 0.118743 -2.166419
v -0.789057 0.121040 -2.140904
v -0.761721 0.149277 -2.142497
v -0.756819 0.143135 -2.162523
v -0.788075 -0.031119 -2.159543
v -0.781065 0.030630 -2.162376
v -0.743744 0.033867 -2.159421
v -0.747080 -0.031340 -2.155871
v -0.781065 0.030630 -2.162376
v -0.788075 -0.031119 -2.159543
v -0.807378 -0.051539 -2.148186
v -0.807438 0.009176 -2.158596
v -0.785869 -0.060135 -2.150118
v -0.803895 -0.057019 -2.108952
v -0.817237 -0.050608 -2.132638
v -0.807378 -0.051539 -2.148186
v -0.817237 -0.050608 -2.132638
v -0.821467 -0.000475 -2.135985
v -0.807438 0.009176 -2.158596
v -0.807378 -0.051539 -2.148186
v -0.802340 0.033346 -2.132214
v -0.781065 0.030630 -2.162376
v -0.807438 0.009176 -2.158596
v -0.821467 -0.000475 -2.135985
v -0.749544 -0.011838 -2.088614
v -0.744561 0.120299 -2.109496
v -0.774975 0.131507 -2.113460
v -0.797752 -0.007394 -2.089835
v -0.684555 -0.010469 -2.135164
v -0.689797 0.031837 -2.135423
v -0.671975 0.032128 -2.116923
v -0.657797 -0.037755 -2.110950
v -0.657797 -0.037755 -2.110950
v -0.671975 0.032128 -2.116923
v -0.678890 0.030467 -2.092131
v -0.666440 -0.029066 -2.081748
v -0.704048 -0.029217 -2.069586
v -0.704148 0.034082 -2.086464
v -0.721394 0.027767 -2.104294
v -0.722148 -0.012360 -2.098702
v -0.722148 -0.012360 -2.098702
v -0.721394 0.027767 -2.104294
v -0.714218 0.026645 -2.128773
v -0.713665 -0.013687 -2.127641
v -0.713665 -0.013687 -2.127641
v -0.714218 0.026645 -2.128773
v -0.689797 0.031837 -2.135423
v -0.684555 -0.010469 -2.135164
v -0.703169 0.041746 -2.111323
v -0.695101 0.041958 -2.108982
v -0.685299 0.038986 -2.122808
v -0.704249 0.038487 -2.128304
v -0.715817 -0.060726 -2.121721
v -0.713277 -0.041951 -2.126848
v -0.680882 -0.040117 -2.134984
v -0.687162 -0.059700 -2.128837
v -0.675106 -0.056080 -2.079321
v -0.666440 -0.029066 -2.081748
v -0.704048 -0.029217 -2.069586
v -0.708938 -0.057492 -2.071265
v -0.666806 -0.057378 -2.107637
v -0.657797 -0.037755 -2.110950
v -0.666440 -0.029066 -2.081748
v -0.675106 -0.056080 -2.079321
v -0.687162 -0.059700 -2.128837
v -0.680882 -0.040117 -2.134984
v -0.657797 -0.037755 -2.110950
v -0.666806 -0.057378 -2.107637
v -0.692854 0.038103 -2.096721
v -0.695101 0.041958 -2.108982
v -0.703169 0.041746 -2.111323
v -0.704148 0.034082 -2.086464
v -0.714218 0.026645 -2.128773
v -0.721394 0.027767 -2.104294
v -0.703169 0.041746 -2.111323
v -0.704249 0.038487 -2.128304
v -0.713277 -0.041951 -2.126848
v -0.713665 -0.013687 -2.127641
v -0.684555 -0.010469 -2.135164
v -0.680882 -0.040117 -2.134984
v -0.713665 -0.013687 -2.127641
v -0.713277 -0.041951 -2.126848
v -0.732473 -0.057702 -2.114048
v -0.731120 -0.024467 -2.118836
v -0.715817 -0.060726 -2.121721
v -0.718914 -0.058696 -2.085193
v -0.735959 -0.057182 -2.099450
v -0.732473 -0.057702 -2.114048
v -0.735959 -0.057182 -2.099450
v -0.735061 -0.028697 -2.098269
v -0.731120 -0.024467 -2.118836
v -0.732473 -0.057702 -2.114048
v -0.722148 -0.012360 -2.098702
v -0.713665 -0.013687 -2.127641
v -0.731120 -0.024467 -2.118836
v -0.735061 -0.028697 -2.098269
v -0.666440 -0.029066 -2.081748
v -0.678890 0.030467 -2.092131
v -0.704148 0.034082 -2.086464
v -0.704048 -0.029217 -2.069586
v -0.740642 -0.061274 -2.092497
v -0.746969 0.013651 -2.091261
v -0.733640 0.014721 -2.088878
v -0.724735 -0.059996 -2.089654
v -0.724735 -0.059996 -2.089654
v -0.733640 0.014721 -2.088878
v -0.729220 0.013291 -2.075499
v -0.719270 -0.059282 -2.074379
v -0.719270 -0.059282 -2.074379
v -0.729220 0.013291 -2.075499
v -0.737234 0.012874 -2.065979
v -0.729710 -0.059845 -2.061949
v -0.729710 -0.059845 -2.061949
v -0.737234 0.012874 -2.065979
v -0.751139 0.013777 -2.068043
v -0.745616 -0.061123 -2.064792
v -0.745616 -0.061123 -2.064792
v -0.751139 0.013777 -2.068043
v -0.755719 0.013179 -2.080843
v -0.751083 -0.061837 -2.080066
v -0.751083 -0.061837 -2.080066
v -0.755719 0.013179 -2.080843
v -0.746969 0.013651 -2.091261
v -0.740642 -0.061274 -2.092497
v -0.755719 0.013179 -2.080843
v -0.751139 0.013777 -2.068043
v -0.739689 0.020454 -2.071956
v -0.746969 0.013651 -2.091261
v -0.809896 -0.059162 -1.959585
v -0.622059 -0.059162 -2.023702
v -0.686177 -0.059162 -2.211539
v -0.874015 -0.059162 -2.147422
v -0.748955 0.091382 -2.046135
v -0.758588 0.096381 -2.074898
v -0.774080 0.111168 -2.071534
v -0.773696 0.116248 -2.051430
v -0.764044 0.107538 -2.041069
v -0.789454 -0.061872 -2.086024
v -0.755123 -0.062074 -2.079168
v -0.743890 -0.061823 -2.046012
v -0.771432 -0.061626 -2.015297
v -0.790642 -0.061268 -2.022097
v -0.812551 -0.061418 -2.059722
v -0.744561 0.120299 -2.109496
v -0.726035 0.124124 -2.135653
v -0.737188 0.141264 -2.148391
v -0.753364 0.148481 -2.136479
v -0.756785 0.139162 -2.121034
v -0.749790 -0.061639 -2.146739
v -0.734526 -0.060485 -2.113847
v -0.755343 -0.057827 -2.084335
v -0.797849 -0.056479 -2.088714
v -0.803895 -0.057019 -2.108952
v -0.785869 -0.060135 -2.150118
v -0.678890 0.030467 -2.092131
v -0.671975 0.032128 -2.116923
v -0.685299 0.038986 -2.122808
v -0.695101 0.041958 -2.108982
v -0.692854 0.038103 -2.096721
v -0.687162 -0.059700 -2.128837
v -0.666806 -0.057378 -2.107637
v -0.675106 -0.056080 -2.079321
v -0.708938 -0.057492 -2.071265
v -0.718914 -0.058696 -2.085193
v -0.715817 -0.060726 -2.121721
v -0.740642 -0.061274 -2.092497
v -0.724735 -0.059996 -2.089654
v -0.719270 -0.059282 -2.074379
v -0.729710 -0.059845 -2.061949
v -0.745616 -0.061123 -2.064792
v -0.751083 -0.061837 -2.080066
vn 0.2239 0.4332 -0.8731
vn -0.7662 0.2787 -0.5789
vn -0.1638 0.7380 -0.6546
vn -0.8861 -0.1950 -0.4205
vn -0.3324 -0.1497 0.9312
vn -0.3085 0.6955 0.6489
vn 0.7243 0.5434 0.4244
vn -0.4770 -0.0598 0.8769
vn 0.1964 0.0388 -0.9798
vn -0.1402 -0.2227 0.9648
vn 0.3864 0.0811 0.9188
vn 0.8806 0.3008 -0.3663
vn 0.0227 0.1447 -0.9892
vn 0.4966 0.6196 -0.6078
vn -0.2096 -0.3164 -0.9252
vn -0.9582 0.0084 0.2860
vn -0.7120 0.6950 0.1003
vn 0.1022 0.5664 0.8178
vn -0.9848 0.0590 0.1633
vn 0.9061 -0.0691 -0.4175
vn -0.8753 -0.0417 0.4818
vn -0.5448 0.2178 0.8098
vn 0.5612 0.6181 -0.5504
vn -0.3091 0.2960 -0.9038
vn 0.1296 0.8422 -0.5234
vn -0.4385 -0.1810 -0.8803
vn -0.8127 0.1065 0.5729
vn -0.5351 0.8130 0.2296
vn 0.2406 0.7840 0.5723
vn -0.8146 0.1092 0.5696
vn 0.7145 0.0843 -0.6946
vn -0.6421 -0.0115 0.7665
vn -0.2851 0.2499 0.9253
vn -0.0790 0.6014 0.7951
vn 0.5941 0.6078 0.5269
vn -0.0175 0.9450 -0.3265
vn 0.5416 0.8358 -0.0896
vn 0.1985 0.0393 -0.9793
vn 0.1983 0.0394 -0.9793
vn 0.1985 0.0394 -0.9793
vn 0.9382 0.0497 -0.3425
vn 0.9382 0.0497 -0.3424
vn -0.2743 0.1125 0.9550
vn -0.2742 0.1125 0.9551
vn -0.9440 0.0833 0.3192
vn -0.7570 0.0608 -0.6506
vn -0.0069 0.9695 -0.2448
vn -0.0070 0.9695 -0.2449
vn -0.7444 -0.1333 -0.6543
vn -0.7444 -0.1332 -0.6543
vn 0.7673 -0.1030 0.6329
vn 0.7673 -0.1031 0.6330
vn 0.7672 -0.1031 0.6330
vn 0.9434 -0.0407 -0.3292
vn 0.9434 -0.0408 -0.3292
vn 0.1956 -0.0132 -0.9806
vn 0.1956 -0.0131 -0.9806
vn 0.1957 -0.0132 -0.9806
vn 0.1957 -0.0133 -0.9806
vn 0.2563 0.8568 0.4474
vn -0.7240 0.6155 0.3113
vn -0.7241 0.6155 0.3112
vn -0.7240 0.6155 0.3114
vn -0.7523 0.0605 -0.6560
vn -0.7524 0.0607 -0.6559
vn -0.7526 0.0608 -0.6557
vn -0.7524 0.0606 -0.6559
vn -0.9154 0.0091 -0.4025
vn -0.9154 0.0091 -0.4024
vn -0.9153 0.0091 -0.4027
vn -0.2725 -0.9517 0.1415
vn -0.2727 -0.9516 0.1415
vn -0.2727 -0.9516 0.1416
vn -0.9316 -0.1188 0.3435
vn -0.9316 -0.1188 0.3436
vn -0.6919 0.6276 0.3569
vn -0.6918 0.6276 0.3570
vn -0.6919 0.6276 0.3570
vn 0.7843 0.0673 0.6167
vn 0.9070 -0.0686 -0.4155
vn 0.9070 -0.0685 -0.4155
vn 0.9070 -0.0685 -0.4154
vn 0.9068 -0.0684 -0.4159
vn 0.8313 0.0479 0.5538
vn 0.8313 0.0479 0.5537
vn -0.9234 0.1941 0.3311
vn -0.9235 0.1934 0.3314
vn -0.9234 0.1942 0.3311
vn -0.8126 0.0657 -0.5791
vn 0.0795 -0.0566 -0.9952
vn 0.0794 -0.0565 -0.9952
vn 0.0793 -0.0564 -0.9953
vn 0.2528 0.9406 -0.2266
vn 0.0802 -0.2980 -0.9512
vn 0.0803 -0.2982 -0.9511
vn -0.0577 0.0601 0.9965
vn -0.0577 0.0602 0.9965
vn 0.8181 -0.0448 0.5734
vn 0.8178 -0.0450 0.5737
vn 0.8181 -0.0448 0.5733
vn 0.8178 -0.0451 0.5737
vn 0.8905 -0.2031 -0.4071
vn 0.8905 -0.2032 -0.4071
vn 0.8906 -0.2033 -0.4068
vn 0.8906 -0.2034 -0.4067
vn -0.1978 0.8684 0.4547
vn -0.6903 0.5651 -0.4519
vn -0.6904 0.5651 -0.4517
vn 0.0864 -0.0571 -0.9946
vn 0.0863 -0.0570 -0.9946
vn 0.0863 -0.0571 -0.9946
vn -0.2369 -0.0912 -0.9672
vn -0.2371 -0.0911 -0.9672
vn -0.2370 -0.0911 -0.9672
vn -0.2369 -0.0912 -0.9673
vn -0.3400 -0.9350 -0.1004
vn -0.3400 -0.9350 -0.1006
vn -0.3400 -0.9350 -0.1005
vn -0.8330 -0.0998 -0.5442
vn -0.8329 -0.0998 -0.5443
vn -0.8330 -0.0999 -0.5442
vn -0.7085 0.5832 -0.3974
vn -0.7085 0.5832 -0.3973
vn -0.7086 0.5831 -0.3973
vn -0.0321 0.1652 0.9857
vn -0.0322 0.1652 0.9857
vn 0.7156 0.0855 -0.6932
vn 0.7158 0.0854 -0.6930
vn 0.7160 0.0853 -0.6929
vn 0.9437 0.2248 0.2426
vn 0.9437 0.2248 0.2427
vn -0.7760 0.1386 0.6153
vn -0.7759 0.1386 0.6154
vn -0.7760 0.1386 0.6154
vn -0.9597 -0.0210 -0.2803
vn -0.9597 -0.0210 -0.2804
vn -0.2508 -0.0339 -0.9674
vn -0.2509 -0.0338 -0.9674
vn -0.2510 -0.0338 -0.9674
vn -0.2508 -0.0338 -0.9674
vn 0.0294 0.9813 -0.1902
vn 0.0294 0.9813 -0.1901
vn 0.0293 0.9813 -0.1902
vn -0.2258 -0.2269 -0.9474
vn -0.2261 -0.2265 -0.9474
vn -0.2262 -0.2263 -0.9474
vn 0.2730 -0.0540 0.9605
vn 0.2731 -0.0539 0.9605
vn 0.2730 -0.0539 0.9605
vn 0.8991 -0.3017 0.3172
vn 0.8991 -0.3017 0.3173
vn 0.6783 -0.4112 -0.6090
vn 0.6783 -0.4113 -0.6089
vn 0.6784 -0.4117 -0.6085
vn 0.6783 -0.4115 -0.6088
vn -0.0860 0.9507 0.2980
vn -0.0861 0.9507 0.2980
vn -0.6868 0.7054 -0.1754
vn -0.6868 0.7053 -0.1756
vn -0.6868 0.7053 -0.1755
vn -0.6869 0.7053 -0.1754
vn -0.2438 -0.0336 -0.9693
vn -0.2440 -0.0334 -0.9692
vn -0.2439 -0.0335 -0.9692
vn -0.4669 -0.0727 -0.8813
vn -0.4670 -0.0727 -0.8813
vn -0.1394 -0.9897 0.0314
vn -0.1395 -0.9897 0.0313
vn -0.9786 0.0237 -0.2043
vn -0.9786 0.0238 -0.2042
vn -0.6820 0.7199 -0.1290
vn -0.6821 0.7198 -0.1289
vn 0.2772 0.2351 0.9316
vn 0.2771 0.2350 0.9317
vn 0.2771 0.2351 0.9316
vn 0.1735 0.0309 -0.9844
vn 0.1735 0.0309 -0.9843
vn 0.9395 0.1195 -0.3211
vn 0.9394 0.1195 -0.3212
vn 0.7581 0.1140 0.6421
vn 0.7576 0.1138 0.6428
vn 0.7579 0.1140 0.6423
vn 0.7580 0.1139 0.6422
vn -0.1629 0.0342 0.9861
vn -0.1628 0.0342 0.9861
vn -0.1629 0.0342 0.9860
vn -0.9393 -0.0545 0.3387
vn -0.9393 -0.0546 0.3387
vn -0.7634 -0.0539 -0.6436
vn -0.3784 0.9228 -0.0729
vn -0.3785 0.9227 -0.0728
vn -0.3784 0.9228 -0.0730
vn -0.0000 1.0000 -0.0000
vn 0.7013 0.7002 -0.1336
vn 0.7014 0.7002 -0.1335
vn -0.0087 -0.9999 0.0075
vn -0.0088 -0.9999 0.0074
vn -0.0088 -0.9999 0.0073
vn -0.0089 -0.9999 0.0073
vn 0.5721 0.6664 0.4782
vn -0.0448 -0.9975 0.0540
vn -0.0447 -0.9975 0.0540
vn 0.4292 0.8881 0.1645
vn 0.0510 -0.9970 0.0588
vn 0.0513 -0.9970 0.0587
vn 0.0514 -0.9970 0.0587
vn 0.0513 -0.9970 0.0588
vn 0.0766 -0.9969 0.0192
vt 0.263168 0.117835
vt 0.322842 0.088380
vt 0.281745 0.060879
vt 0.390207 0.071902
vt 0.328921 0.033346
vt 0.030027 0.579104
vt 0.030800 0.628667
vt 0.084938 0.605272
vt 0.248919 0.590048
vt 0.225960 0.498405
vt 0.201505 0.603040
vt 0.137465 0.151299
vt 0.064236 0.104310
vt 0.081665 0.193307
vt 0.209811 0.166332
vt 0.175574 0.119793
vt 0.123013 0.417853
vt 0.491756 0.446230
vt 0.423044 0.296808
vt 0.413413 0.480764
vt 0.130303 0.599447
vt 0.122122 0.509795
vt 0.839038 0.540221
vt 0.905573 0.538962
vt 0.880087 0.496586
vt 0.973546 0.552720
vt 0.934496 0.491748
vt 0.431755 0.858411
vt 0.411362 0.903590
vt 0.470309 0.905460
vt 0.625177 0.961471
vt 0.643404 0.868770
vt 0.576742 0.953049
vt 0.711045 0.517005
vt 0.664775 0.443319
vt 0.642672 0.531272
vt 0.770115 0.561399
vt 0.758938 0.504713
vt 0.584526 0.752065
vt 0.906132 0.934675
vt 0.907544 0.770217
vt 0.820541 0.932584
vt 0.513839 0.919495
vt 0.544590 0.834886
vt 0.828054 0.010780
vt 0.820580 0.059312
vt 0.858125 0.059012
vt 0.890106 0.068806
vt 0.890688 0.014095
vt 0.923281 0.061427
vt 0.957383 0.046058
vt 0.324902 0.470861
vt 0.015272 0.193535
vt 0.036226 0.427124
vt 0.500328 0.272008
vt 0.159893 0.066815
vt 0.179450 0.079987
vt 0.227614 0.064175
vt 0.183520 0.015954
vt 0.591541 0.459262
vt 0.573298 0.414487
vt 0.512023 0.493908
vt 0.349158 0.559098
vt 0.431759 0.527089
vt 0.016737 0.119761
vt 0.077063 0.488749
vt 0.648506 0.124824
vt 0.576539 0.201838
vt 0.641368 0.213032
vt 0.666539 0.178063
vt 0.744660 0.885953
vt 0.582495 0.503222
vt 0.502045 0.723519
vt 0.988035 0.780666
vt 0.767295 0.450100
vt 0.779387 0.470342
vt 0.829700 0.476532
vt 0.810321 0.414130
vt 0.990883 0.988934
vt 0.993430 0.940652
vt 0.904181 0.986445
vt 0.729057 0.976124
vt 0.817428 0.982312
vt 0.615217 0.437087
vt 0.512773 0.796665
vt 0.461828 0.691492
vt 0.361870 0.724938
vt 0.413544 0.765655
vt 0.452331 0.746894
vt 0.989590 0.404987
vt 0.943026 0.408433
vt 0.893573 0.410153
vt 0.844019 0.409552
vt 0.797192 0.406989
vt 0.789422 0.056555
vt 0.745725 0.401827
vt 0.758386 0.036981
vt 0.693122 0.393749
vt 0.003328 0.994138
vt 0.308661 0.994138
vt 0.308661 0.688805
vt 0.003328 0.688805
vt 0.608143 0.050298
vt 0.527520 0.207539
vt 0.479061 0.120208
vt 0.523421 0.047990
vt 0.315030 0.606738
vt 0.316051 0.706607
vt 0.461828 0.606738
vt 0.388429 0.564361
vt 0.622133 0.266244
vt 0.662603 0.336339
vt 0.662603 0.289609
vt 0.622133 0.359704
vt 0.581664 0.289609
vt 0.581664 0.336339
s 1
usemtl Material.003
f 1/1/1 2/2/1 3/3/1
f 4/2/2 5/4/2 6/5/2
f 7/3/3 8/2/3 9/5/3
f 10/6/4 11/7/4 12/8/4
f 13/9/5 14/10/5 15/11/5
f 16/12/6 17/13/6 18/14/6
f 19/15/7 20/16/7 21/12/7
f 22/10/8 23/17/8 24/11/8
f 25/18/9 26/19/9 27/20/9
f 28/21/10 29/11/10 30/22/10
f 31/11/11 32/17/11 33/22/11
f 34/23/12 35/24/12 36/25/12
f 37/24/13 38/26/13 39/27/13
f 40/25/14 41/24/14 42/27/14
f 43/28/15 44/29/15 45/30/15
f 46/31/16 47/32/16 48/33/16
f 49/34/17 50/35/17 51/36/17
f 52/37/18 53/38/18 54/34/18
f 55/32/19 56/39/19 57/33/19
f 58/40/20 59/41/20 60/42/20
f 61/43/21 62/33/21 63/44/21
f 64/33/22 65/39/22 66/44/22
f 67/1/23 68/2/23 69/3/23
f 70/2/24 71/4/24 72/5/24
f 73/3/25 74/2/25 75/5/25
f 76/6/26 77/7/26 78/8/26
f 79/9/27 80/10/27 81/11/27
f 82/12/28 83/13/28 84/14/28
f 85/15/29 86/16/29 87/12/29
f 88/10/30 89/17/30 90/11/30
f 91/18/31 92/19/31 93/20/31
f 94/21/32 95/11/32 96/22/32
f 97/11/33 98/17/33 99/22/33
f 100/45/34 101/46/34 102/47/34
f 103/48/35 104/49/35 105/47/35
f 106/50/36 107/51/36 108/49/36
f 109/48/37 110/50/37 111/49/37
f 112/19/38 113/2/39 114/1/38
f 112/19/38 114/1/38 115/20/40
f 116/20/41 117/1/42 118/15/41
f 116/20/41 118/15/41 119/52/41
f 120/10/43 121/12/44 122/14/44
f 120/10/43 122/14/44 123/17/43
f 124/17/45 125/14/45 126/53/45
f 124/17/45 126/53/45 127/54/45
f 128/55/46 129/4/46 130/2/46
f 128/55/46 130/2/46 131/19/46
f 132/56/47 133/57/48 134/58/47
f 132/56/47 134/58/47 135/59/47
f 136/60/49 137/61/49 138/18/50
f 136/60/49 138/18/50 139/62/49
f 140/63/51 141/52/52 142/10/53
f 140/63/51 142/10/53 143/9/53
f 144/64/54 145/20/54 146/52/55
f 144/64/54 146/52/55 147/63/54
f 148/62/56 149/18/57 150/20/58
f 148/62/56 150/20/58 151/64/59
f 152/16/60 153/57/60 154/56/60
f 152/16/60 154/56/60 155/12/60
f 156/53/61 157/14/62 158/13/61
f 156/53/61 158/13/61 159/65/63
f 160/61/64 161/55/65 162/19/66
f 160/61/64 162/19/66 163/18/67
f 164/54/68 165/6/69 166/8/68
f 164/54/68 166/8/68 167/66/70
f 168/67/71 169/68/71 170/69/72
f 168/67/71 170/69/72 171/70/73
f 172/21/74 173/22/74 174/66/74
f 172/21/74 174/66/74 175/8/75
f 176/17/76 177/54/76 178/66/77
f 176/17/76 178/66/77 179/22/78
f 180/52/79 181/15/79 182/12/79
f 180/52/79 182/12/79 183/10/79
f 184/41/80 185/24/81 186/23/82
f 184/41/80 186/23/82 187/42/83
f 188/42/84 189/23/84 190/37/85
f 188/42/84 190/37/85 191/71/85
f 192/32/86 193/34/87 194/36/88
f 192/32/86 194/36/88 195/39/86
f 196/39/89 197/36/89 198/72/89
f 196/39/89 198/72/89 199/73/89
f 200/74/90 201/26/91 202/24/92
f 200/74/90 202/24/92 203/41/91
f 204/75/93 205/76/93 206/77/93
f 204/75/93 206/77/93 207/78/93
f 208/79/94 209/80/95 210/40/95
f 208/79/94 210/40/95 211/81/95
f 212/82/96 213/71/97 214/32/97
f 212/82/96 214/32/97 215/31/97
f 216/83/98 217/42/99 218/71/100
f 216/83/98 218/71/100 219/82/101
f 220/81/102 221/40/103 222/42/104
f 220/81/102 222/42/104 223/83/105
f 224/38/106 225/76/106 226/75/106
f 224/38/106 226/75/106 227/34/106
f 228/72/107 229/36/107 230/35/108
f 228/72/107 230/35/108 231/84/108
f 232/80/109 233/74/110 234/41/111
f 232/80/109 234/41/111 235/40/109
f 236/73/112 237/28/113 238/30/114
f 236/73/112 238/30/114 239/85/115
f 240/86/116 241/87/116 242/88/117
f 240/86/116 242/88/117 243/89/118
f 244/43/119 245/44/120 246/85/119
f 244/43/119 246/85/119 247/30/121
f 248/39/122 249/73/122 250/85/123
f 248/39/122 250/85/123 251/44/124
f 252/71/125 253/37/126 254/34/126
f 252/71/125 254/34/126 255/32/125
f 256/19/127 257/2/128 258/1/129
f 256/19/127 258/1/129 259/20/128
f 260/20/130 261/1/131 262/15/131
f 260/20/130 262/15/131 263/52/131
f 264/10/132 265/12/133 266/14/134
f 264/10/132 266/14/134 267/17/132
f 268/17/135 269/14/135 270/53/135
f 268/17/135 270/53/135 271/54/136
f 272/55/137 273/4/138 274/2/139
f 272/55/137 274/2/139 275/19/140
f 276/56/141 277/57/142 278/58/143
f 276/56/141 278/58/143 279/59/143
f 280/60/144 281/61/145 282/18/146
f 280/60/144 282/18/146 283/62/145
f 284/63/147 285/52/148 286/10/149
f 284/63/147 286/10/149 287/9/149
f 288/64/150 289/20/151 290/52/151
f 288/64/150 290/52/151 291/63/150
f 292/62/152 293/18/153 294/20/154
f 292/62/152 294/20/154 295/64/155
f 296/16/156 297/57/157 298/56/157
f 296/16/156 298/56/157 299/12/157
f 300/53/158 301/14/159 302/13/160
f 300/53/158 302/13/160 303/65/161
f 304/61/162 305/55/163 306/19/164
f 304/61/162 306/19/164 307/18/163
f 308/54/165 309/6/165 310/8/166
f 308/54/165 310/8/166 311/66/165
f 312/67/167 313/68/167 314/69/168
f 312/67/167 314/69/168 315/70/167
f 316/21/169 317/22/170 318/66/170
f 316/21/169 318/66/170 319/8/169
f 320/17/171 321/54/171 322/66/171
f 320/17/171 322/66/171 323/22/172
f 324/52/173 325/15/174 326/12/173
f 324/52/173 326/12/173 327/10/175
f 328/90/176 329/51/177 330/50/177
f 328/90/176 330/50/177 331/91/176
f 332/91/178 333/50/179 334/48/178
f 332/91/178 334/48/178 335/92/179
f 336/92/180 337/48/181 338/47/182
f 336/92/180 338/47/182 339/93/183
f 340/93/184 341/47/185 342/46/184
f 340/93/184 342/46/184 343/94/186
f 344/94/187 345/46/188 346/95/188
f 344/94/187 346/95/188 347/96/187
f 348/96/189 349/95/189 350/97/189
f 348/96/189 350/97/189 351/98/189
f 352/95/190 353/46/191 354/45/192
f 352/95/190 354/45/192 355/97/192
f 356/99/193 357/100/193 358/101/193
f 356/99/193 358/101/193 359/102/193
f 360/15/194 363/57/195 364/16/195
f 363/57/195 360/15/194 361/1/195
f 363/57/195 361/1/195 362/58/194
f 365/103/196 369/68/197 370/67/198
f 369/68/197 365/103/196 368/104/199
f 368/104/199 365/103/196 367/105/197
f 367/105/197 365/103/196 366/106/197
f 372/23/200 375/38/200 371/37/200
f 375/38/200 372/23/200 373/77/200
f 375/38/200 373/77/200 374/76/200
f 380/87/201 378/107/202 379/108/202
f 378/107/202 380/87/201 381/86/202
f 378/107/202 381/86/202 376/109/202
f 378/107/202 376/109/202 377/110/202
f 382/15/203 385/57/203 386/16/203
f 385/57/203 382/15/203 384/58/203
f 384/58/203 382/15/203 383/1/203
f 392/67/204 390/104/205 391/68/205
f 390/104/205 392/67/204 389/105/206
f 389/105/206 392/67/204 387/103/207
f 389/105/206 387/103/207 388/106/207
f 393/111/208 397/112/208 398/113/208
f 397/112/208 393/111/208 396/114/208
f 396/114/208 393/111/208 394/115/208
f 396/114/208 394/115/208 395/116/208
