# Blender 5.1.0
# www.blender.org
mtllib TidusArm.mtl
o Arm
v 0.036821 0.051471 0.096521
v 0.034435 0.038745 0.117505
v 0.034448 0.017829 0.103827
v 0.036727 0.028539 0.084377
v 0.036821 0.051471 0.096521
v 0.036727 0.028539 0.084377
v 0.034448 0.017829 0.103827
v 0.034435 0.038745 0.117505
v 0.135351 0.052605 0.121547
v 0.131255 0.049329 0.102253
v 0.136338 0.050337 0.110223
v 0.121174 0.051345 0.118747
v 0.135937 0.043155 0.124723
v 0.118866 0.022113 0.126160
v 0.133195 0.020727 0.128722
v 0.119247 0.014553 0.112849
v 0.133599 0.017577 0.119365
v 0.137269 0.040257 0.113486
v 0.139888 0.018837 0.120291
v 0.145309 0.040131 0.115857
v 0.151190 0.019089 0.120997
v 0.152569 0.040005 0.113994
v 0.157799 0.020475 0.115850
v 0.160539 0.040257 0.108177
v 0.166612 0.042273 0.109966
v 0.130040 0.040257 0.095339
v 0.131255 0.049329 0.102253
v 0.147954 0.057897 0.095306
v 0.120104 0.028917 0.100574
v 0.126148 0.045045 0.090328
v 0.113984 0.037359 0.093080
v 0.113729 0.047313 0.099995
v 0.113730 0.047061 0.101464
v 0.121174 0.051345 0.118747
v 0.112550 0.045927 0.115403
v 0.118866 0.022113 0.126160
v 0.110631 0.020349 0.122729
v 0.119247 0.014553 0.112849
v 0.111208 0.013923 0.111211
v 0.112088 0.015435 0.102892
v 0.148750 0.052983 0.090270
v 0.130040 0.040257 0.095339
v 0.147954 0.057897 0.095306
v 0.138550 0.052983 0.088462
v 0.147954 0.057897 0.095306
v 0.137732 0.057519 0.093216
v 0.131255 0.049329 0.102253
v 0.124920 0.051723 0.096358
v 0.121174 0.051345 0.118747
v 0.113729 0.047313 0.099995
v 0.049838 0.041769 0.077087
v 0.036292 0.017073 0.080963
v 0.048135 0.017199 0.082814
v 0.038212 0.042651 0.075106
v 0.049180 0.059157 0.095563
v 0.037489 0.060795 0.094209
v 0.046754 0.051849 0.119658
v 0.034977 0.053109 0.119385
v 0.033057 0.027531 0.125242
v 0.163306 0.047817 0.110336
v 0.163091 0.041265 0.111935
v 0.168516 0.048825 0.114114
v 0.154211 0.041643 0.114771
v 0.154513 0.049455 0.112826
v 0.143753 0.041139 0.114735
v 0.143794 0.049833 0.112358
v 0.137269 0.040257 0.113486
v 0.136338 0.050337 0.110223
v 0.155621 0.042777 0.122744
v 0.168516 0.048825 0.114114
v 0.168366 0.041517 0.115821
v 0.155900 0.051723 0.120518
v 0.146114 0.043407 0.124047
v 0.146242 0.052227 0.121324
v 0.135937 0.043155 0.124723
v 0.135351 0.052605 0.121547
v 0.151190 0.019089 0.120997
v 0.154521 0.020349 0.126051
v 0.157799 0.020475 0.115850
v 0.144106 0.020349 0.127311
v 0.139888 0.018837 0.120291
v 0.133195 0.020727 0.128722
v 0.133599 0.017577 0.119365
v 0.148880 0.042147 0.124736
v 0.144106 0.020349 0.127311
v 0.135937 0.043155 0.124723
v 0.154521 0.020349 0.126051
v 0.156700 0.042273 0.120626
v 0.162489 0.021357 0.116560
v 0.166612 0.042273 0.109966
v 0.145309 0.040131 0.115857
v 0.148880 0.042147 0.124736
v 0.135937 0.043155 0.124723
v 0.156700 0.042273 0.120626
v 0.152569 0.040005 0.113994
v 0.160539 0.040257 0.108177
v 0.131255 0.049329 0.102253
v 0.137269 0.040257 0.113486
v 0.136338 0.050337 0.110223
v 0.119247 0.014553 0.112849
v 0.120104 0.028917 0.100574
v 0.112088 0.015435 0.102892
v 0.102245 0.035469 0.085287
v 0.095071 0.035847 0.084600
v 0.100671 0.015561 0.091230
v 0.094539 0.051093 0.098883
v 0.101714 0.050715 0.099570
v 0.092607 0.046431 0.119154
v 0.094539 0.051093 0.098883
v 0.093562 0.015939 0.090651
v 0.095071 0.035847 0.084600
v 0.091522 0.011151 0.110986
v 0.092607 0.046431 0.119154
v 0.091099 0.026523 0.125205
v 0.045644 0.009891 0.106802
v 0.033057 0.027531 0.125242
v 0.044985 0.027279 0.125277
v 0.033888 0.009513 0.106074
v 0.048135 0.017199 0.082814
v 0.036292 0.017073 0.080963
v 0.037489 0.060795 0.094209
v 0.036292 0.017073 0.080963
v 0.038212 0.042651 0.075106
v 0.033888 0.009513 0.106074
v 0.034977 0.053109 0.119385
v 0.033057 0.027531 0.125242
v 0.048857 0.054369 0.096492
v 0.093936 0.046809 0.101304
v 0.092734 0.044415 0.114227
v 0.094469 0.034587 0.090694
v 0.049387 0.041013 0.081474
v 0.047964 0.019845 0.086445
v 0.155900 0.051723 0.120518
v 0.154513 0.049455 0.112826
v 0.163306 0.047817 0.110336
v 0.143794 0.049833 0.112358
v 0.146242 0.052227 0.121324
v 0.135351 0.052605 0.121547
v 0.110690 0.005355 0.113286
v 0.114398 0.054999 0.099886
v 0.114970 0.036603 0.081756
v 0.111907 0.048447 0.124609
v 0.110053 0.023751 0.131308
v 0.098005 0.005985 0.112235
v 0.099222 0.049077 0.123558
v 0.097368 0.024381 0.130258
v 0.101713 0.055629 0.098836
v 0.102285 0.037233 0.080705
v 0.092734 0.044415 0.114227
v 0.046925 0.050589 0.116762
v 0.048857 0.054369 0.096492
v 0.045351 0.028287 0.121971
v 0.091311 0.025137 0.119198
v 0.138550 0.052983 0.088462
v 0.126148 0.045045 0.090328
v 0.130040 0.040257 0.095339
v 0.124920 0.051723 0.096358
v 0.137732 0.057519 0.093216
v 0.098631 0.010899 0.111565
v 0.091522 0.011151 0.110986
v 0.098208 0.026145 0.125784
v 0.093562 0.015939 0.090651
v 0.100671 0.015561 0.091230
v 0.045644 0.009891 0.106802
v 0.049838 0.041769 0.077087
v 0.048135 0.017199 0.082814
v 0.049180 0.059157 0.095563
v 0.046754 0.051849 0.119658
v 0.101713 0.055629 0.098836
v 0.114970 0.036603 0.081756
v 0.114398 0.054999 0.099886
v 0.102285 0.037233 0.080705
v 0.045902 0.014679 0.105764
v 0.091311 0.025137 0.119198
v 0.091823 0.016821 0.108307
v 0.045351 0.028287 0.121971
v 0.045902 0.014679 0.105764
v 0.093003 0.018711 0.095103
v 0.047964 0.019845 0.086445
v 0.091823 0.016821 0.108307
v 0.155621 0.042777 0.122744
v 0.163091 0.041265 0.111935
v 0.154211 0.041643 0.114771
v 0.168366 0.041517 0.115821
v 0.143753 0.041139 0.114735
v 0.146114 0.043407 0.124047
v 0.155621 0.042777 0.122744
v 0.135937 0.043155 0.124723
v 0.101713 0.055629 0.098836
v 0.114398 0.054999 0.099886
v 0.099222 0.049077 0.123558
v 0.099222 0.049077 0.123558
v 0.114398 0.054999 0.099886
v 0.111907 0.048447 0.124609
v 0.099222 0.049077 0.123558
v 0.111907 0.048447 0.124609
v 0.097368 0.024381 0.130258
v 0.097368 0.024381 0.130258
v 0.111907 0.048447 0.124609
v 0.110053 0.023751 0.131308
v 0.114970 0.036603 0.081756
v 0.113116 0.011907 0.088456
v 0.110690 0.005355 0.113286
v 0.114970 0.036603 0.081756
v 0.102285 0.037233 0.080705
v 0.113116 0.011907 0.088456
v 0.110690 0.005355 0.113286
v 0.098005 0.005985 0.112235
v 0.110053 0.023751 0.131308
v 0.097368 0.024381 0.130258
v 0.110053 0.023751 0.131308
v 0.098005 0.005985 0.112235
v 0.100539 0.012537 0.087340
v 0.113116 0.011907 0.088456
v 0.102285 0.037233 0.080705
v 0.113116 0.011907 0.088456
v 0.100539 0.012537 0.087340
v 0.110690 0.005355 0.113286
v 0.098005 0.005985 0.112235
v 0.110690 0.005355 0.113286
v 0.100539 0.012537 0.087340
v 0.100539 0.012537 0.087340
v 0.102285 0.037233 0.080705
v 0.098005 0.005985 0.112235
v 0.094469 0.034587 0.090694
v 0.047964 0.019845 0.086445
v 0.093003 0.018711 0.095103
v 0.168366 0.041517 0.115821
v 0.168516 0.048825 0.114114
v 0.163091 0.041265 0.111935
v 0.162489 0.021357 0.116560
v 0.157799 0.020475 0.115850
v 0.154521 0.020349 0.126051
v 0.166612 0.042273 0.109966
v 0.157799 0.020475 0.115850
v 0.162489 0.021357 0.116560
v 0.166612 0.042273 0.109966
v 0.156700 0.042273 0.120626
v 0.160539 0.040257 0.108177
v 0.168516 0.048825 0.114114
v 0.155900 0.051723 0.120518
v 0.163306 0.047817 0.110336
v 0.135351 0.052605 0.121547
v 0.136338 0.050337 0.110223
v 0.143794 0.049833 0.112358
v 0.154211 0.041643 0.114771
v 0.143753 0.041139 0.114735
v 0.155621 0.042777 0.122744
v 0.133195 0.020727 0.128722
v 0.135937 0.043155 0.124723
v 0.144106 0.020349 0.127311
v 0.137269 0.040257 0.113486
v 0.135937 0.043155 0.124723
v 0.143753 0.041139 0.114735
v 0.135937 0.043155 0.124723
v 0.137269 0.040257 0.113486
v 0.145309 0.040131 0.115857
v 0.124920 0.051723 0.096358
v 0.113729 0.047313 0.099995
v 0.126148 0.045045 0.090328
v 0.120104 0.028917 0.100574
v 0.113984 0.037359 0.093080
v 0.112088 0.015435 0.102892
v 0.093562 0.015939 0.090651
v 0.100671 0.015561 0.091230
v 0.095071 0.035847 0.084600
v 0.091099 0.026523 0.125205
v 0.098208 0.026145 0.125784
v 0.091522 0.011151 0.110986
v 0.098208 0.026145 0.125784
v 0.091099 0.026523 0.125205
v 0.099782 0.046053 0.119841
v 0.092607 0.046431 0.119154
v 0.101714 0.050715 0.099570
v 0.099782 0.046053 0.119841
v 0.092607 0.046431 0.119154
v 0.099782 0.046053 0.119841
v 0.091099 0.026523 0.125205
v 0.044985 0.027279 0.125277
v 0.033057 0.027531 0.125242
v 0.046754 0.051849 0.119658
v 0.044985 0.027279 0.125277
v 0.046754 0.051849 0.119658
v 0.045644 0.009891 0.106802
v 0.037317 0.057771 0.094900
v 0.035041 0.051471 0.118023
v 0.033359 0.028287 0.123297
v 0.034103 0.012537 0.105210
v 0.036358 0.019593 0.082541
v 0.042391 0.055125 0.123896
v 0.069430 0.054495 0.099418
v 0.044925 0.060543 0.098267
v 0.067779 0.050337 0.119666
v 0.041228 0.041517 0.129299
v 0.066529 0.038745 0.124680
v 0.065795 0.026145 0.125416
v 0.091182 0.025389 0.120451
v 0.067779 0.050337 0.119666
v 0.094043 0.048321 0.100504
v 0.069430 0.054495 0.099418
v 0.093037 0.045801 0.115221
v 0.066529 0.038745 0.124680
v 0.091765 0.036099 0.119954
v 0.091182 0.025389 0.120451
v 0.121414 0.042399 0.089056
v 0.113851 0.042021 0.088456
v 0.119953 0.052479 0.102281
v 0.114526 0.012789 0.097164
v 0.122155 0.013167 0.097872
v 0.113262 0.011529 0.113652
v 0.120890 0.011907 0.114360
v 0.037954 0.041391 0.077613
v 0.036358 0.019593 0.082541
v 0.037317 0.057771 0.094900
v 0.111822 0.021483 0.126424
v 0.120890 0.011907 0.114360
v 0.119386 0.021861 0.127024
v 0.113262 0.011529 0.113652
v 0.118818 0.051093 0.118251
v 0.111822 0.021483 0.126424
v 0.119386 0.021861 0.127024
v 0.111082 0.050715 0.117608
v 0.118818 0.051093 0.118251
v 0.112325 0.052101 0.101573
v 0.111082 0.050715 0.117608
v 0.119953 0.052479 0.102281
v 0.091650 0.015939 0.108998
v 0.065795 0.026145 0.125416
v 0.066411 0.013167 0.109317
v 0.091182 0.025389 0.120451
v 0.040472 0.027027 0.130488
v 0.065795 0.026145 0.125416
v 0.041228 0.041517 0.129299
v 0.066411 0.013167 0.109317
v 0.033359 0.028287 0.123297
v 0.035041 0.051471 0.118023
v 0.113851 0.042021 0.088456
v 0.112325 0.052101 0.101573
v 0.119953 0.052479 0.102281
v 0.041302 0.010521 0.109851
v 0.066411 0.013167 0.109317
v 0.040472 0.027027 0.130488
v 0.037317 0.057771 0.094900
v 0.035041 0.051471 0.118023
v 0.034103 0.012537 0.105210
v 0.036358 0.019593 0.082541
v 0.033359 0.028287 0.123297
v 0.122155 0.013167 0.097872
v 0.113262 0.011529 0.113652
v 0.120890 0.011907 0.114360
v 0.114526 0.012789 0.097164
v 0.121414 0.042399 0.089056
v 0.113851 0.042021 0.088456
v 0.119953 0.052479 0.102281
v 0.067779 0.050337 0.119666
v 0.042391 0.055125 0.123896
v 0.069430 0.054495 0.099418
v 0.041228 0.041517 0.129299
v 0.066529 0.038745 0.124680
v 0.065795 0.026145 0.125416
v 0.091182 0.025389 0.120451
v 0.066529 0.038745 0.124680
v 0.091765 0.036099 0.119954
v 0.091182 0.025389 0.120451
v 0.093037 0.045801 0.115221
v 0.067779 0.050337 0.119666
v 0.094043 0.048321 0.100504
v 0.069430 0.054495 0.099418
v 0.037317 0.057771 0.094900
v 0.037954 0.041391 0.077613
v 0.036358 0.019593 0.082541
v 0.065795 0.026145 0.125416
v 0.040472 0.027027 0.130488
v 0.041228 0.041517 0.129299
v 0.066411 0.013167 0.109317
v 0.091650 0.015939 0.108998
v 0.111822 0.021483 0.126424
v 0.118818 0.051093 0.118251
v 0.119386 0.021861 0.127024
v 0.111082 0.050715 0.117608
v 0.112325 0.052101 0.101573
v 0.118818 0.051093 0.118251
v 0.111082 0.050715 0.117608
v 0.119953 0.052479 0.102281
v 0.035041 0.051471 0.118023
v 0.033359 0.028287 0.123297
v 0.119386 0.021861 0.127024
v 0.120890 0.011907 0.114360
v 0.111822 0.021483 0.126424
v 0.120890 0.011907 0.114360
v 0.113262 0.011529 0.113652
v 0.111822 0.021483 0.126424
v 0.119953 0.052479 0.102281
v 0.112325 0.052101 0.101573
v 0.113851 0.042021 0.088456
v 0.069430 0.054495 0.099418
v 0.042391 0.055125 0.123896
v 0.044925 0.060543 0.098267
v 0.040472 0.027027 0.130488
v 0.066411 0.013167 0.109317
v 0.041302 0.010521 0.109851
v 0.091650 0.015939 0.108998
v 0.065795 0.026145 0.125416
v 0.091182 0.025389 0.120451
vn -0.0371 0.9739 0.2239
vn 0.8034 0.5897 0.0825
vn 0.4243 0.6013 -0.6771
vn -0.2365 0.8857 0.3995
vn -0.0686 0.2676 0.9611
vn -0.3151 -0.1603 0.9354
vn -0.0435 -0.6873 0.7251
vn 0.3561 -0.9287 -0.1034
vn 0.2527 -0.8787 -0.4050
vn 0.4606 -0.2664 -0.8467
vn 0.1397 -0.8690 -0.4747
vn 0.0112 0.5375 -0.8432
vn -0.0992 -0.8068 -0.5825
vn -0.4498 0.0313 -0.8926
vn -0.0197 -0.6968 -0.7170
vn -0.2450 0.5141 -0.8220
vn 0.6279 0.1815 -0.7568
vn 0.5458 -0.8342 -0.0791
vn 0.7070 0.7071 -0.0157
vn 0.6925 0.6556 0.3010
vn 0.6342 -0.5590 -0.5341
vn -0.1225 -0.0496 -0.9912
vn -0.0766 -0.0425 -0.9962
vn -0.9836 0.1496 -0.1008
vn -0.8476 0.4997 0.1782
vn -0.3434 0.8623 0.3722
vn -0.5904 0.4596 0.6635
vn -0.2750 -0.1334 0.9521
vn -0.1813 -0.6524 0.7359
vn 0.3835 -0.9146 -0.1282
vn 0.0492 -0.9863 0.1574
vn 0.5043 -0.6305 -0.5901
vn 0.6471 -0.2939 -0.7035
vn 0.6385 -0.7447 -0.1941
vn 0.6890 0.6590 0.3016
vn -0.0583 0.3176 -0.9464
vn 0.6880 0.6585 0.3051
vn -0.2327 0.9713 -0.0487
vn 0.7295 0.6838 -0.0178
vn -0.2991 0.9072 -0.2958
vn -0.2391 0.8956 0.3751
vn -0.3533 0.7732 -0.5266
vn 0.1829 0.2819 -0.9418
vn 0.0944 -0.8135 -0.5739
vn 0.0943 -0.8135 -0.5738
vn 0.1839 0.2816 -0.9417
vn 0.1572 0.9636 -0.2162
vn 0.0783 0.8021 0.5920
vn 0.0777 0.7991 0.5962
vn -0.0075 -0.2908 0.9567
vn 0.0373 0.3607 -0.9319
vn 0.0917 -0.8548 -0.5108
vn 0.7819 0.5460 0.3009
vn -0.0829 -0.8047 -0.5878
vn -0.0727 0.2882 -0.9548
vn 0.0918 -0.9642 -0.2490
vn 0.1411 0.5896 -0.7953
vn 0.4458 -0.3004 -0.8432
vn 0.5192 0.5344 -0.6669
vn 0.1886 -0.7255 0.6619
vn 0.7846 0.5462 0.2934
vn 0.7153 -0.6871 0.1274
vn 0.2161 0.9346 0.2825
vn 0.0670 -0.3336 0.9403
vn 0.0788 0.7826 0.6175
vn -0.0166 0.2623 0.9648
vn 0.0342 0.9780 0.2057
vn -0.1236 -0.8086 -0.5753
vn 0.3758 -0.5811 0.7219
vn -0.0234 -0.6937 -0.7199
vn 0.0851 -0.5854 0.8062
vn 0.1168 -0.8621 -0.4931
vn -0.0057 -0.7423 0.6700
vn 0.2068 -0.8687 -0.4501
vn 0.1296 0.8788 0.4593
vn 0.0749 -0.6057 0.7921
vn -0.0468 0.1919 0.9803
vn 0.3800 -0.6563 0.6518
vn 0.2375 0.9365 0.2579
vn 0.8327 -0.5164 0.1998
vn 0.6270 0.1779 -0.7585
vn -0.0286 0.6540 -0.7560
vn 0.1666 0.8103 0.5618
vn -0.0623 0.1836 0.9810
vn 0.2929 0.9016 0.3182
vn -0.4285 0.1256 -0.8948
vn -0.2450 0.5105 -0.8243
vn 0.8156 0.5748 0.0669
vn 0.4620 -0.2835 -0.8403
vn 0.4512 0.5625 -0.6928
vn 0.3206 -0.9436 -0.0830
vn 0.6074 -0.5546 -0.5688
vn 0.3737 -0.7214 -0.5830
vn 0.0956 0.2237 -0.9700
vn 0.0954 0.2237 -0.9700
vn 0.0217 -0.7310 -0.6820
vn 0.0739 0.9548 -0.2879
vn 0.0737 0.9548 -0.2879
vn -0.0216 0.7310 0.6820
vn 0.0216 -0.7311 -0.6819
vn -0.0738 -0.9548 0.2879
vn -0.0217 0.7311 0.6820
vn -0.0954 -0.2237 0.9700
vn 0.0190 -0.9728 0.2311
vn -0.0076 -0.2908 0.9568
vn 0.0180 -0.9727 0.2313
vn 0.0944 -0.8135 -0.5738
vn 0.1570 0.9636 -0.2162
vn 0.0947 -0.8110 -0.5773
vn 0.1840 0.2817 -0.9417
vn 0.0191 -0.9727 0.2312
vn 0.0783 0.8021 0.5921
vn -0.0076 -0.2908 0.9567
vn 0.2055 0.9377 -0.2801
vn 0.1896 0.9269 -0.3239
vn 0.1381 0.7196 0.6805
vn 0.2126 0.2465 -0.9455
vn 0.2330 0.2948 -0.9267
vn 0.1301 -0.5435 -0.8292
vn 0.2086 0.9212 0.3285
vn -0.0662 0.3197 -0.9452
vn 0.0370 0.3568 -0.9335
vn 0.1220 0.6116 -0.7817
vn 0.0727 0.7665 0.6381
vn 0.0549 0.9689 0.2412
vn -0.0575 -0.9956 0.0742
vn 0.0719 0.9628 -0.2605
vn 0.0958 0.2516 -0.9631
vn -0.0418 0.5659 0.8234
vn -0.0993 -0.4295 0.8976
vn -0.0717 -0.9628 0.2605
vn -0.0240 0.7112 0.7025
vn -0.0958 -0.2516 0.9631
vn 0.0835 0.8953 -0.4375
vn 0.0888 0.0644 -0.9940
vn 0.1273 0.7124 0.6901
vn 0.1332 0.7051 0.6965
vn 0.1923 0.9443 -0.2670
vn 0.0582 -0.1131 0.9919
vn 0.0265 -0.5064 0.8619
vn -0.0570 0.3261 -0.9436
vn -0.1955 -0.0832 -0.9772
vn 0.6359 -0.7568 -0.1515
vn -0.4282 0.8619 -0.2716
vn -0.2249 0.9731 -0.0498
vn -0.0737 -0.9548 0.2880
vn -0.0737 -0.9548 0.2879
vn -0.0955 -0.2237 0.9700
vn 0.0215 -0.7311 -0.6820
vn 0.0150 -0.9729 0.2308
vn 0.1799 0.2821 -0.9424
vn 0.0906 -0.8111 -0.5779
vn 0.1530 0.9642 -0.2164
vn 0.0741 0.8026 0.5919
vn 0.0836 0.8934 -0.4414
vn 0.0958 0.2515 -0.9631
vn 0.0717 0.9628 -0.2606
vn 0.0887 0.0600 -0.9943
vn 0.0221 -0.9731 0.2294
vn 0.0217 -0.5129 0.8582
vn 0.0276 -0.9663 0.2559
vn 0.0527 -0.1194 0.9914
vn 0.0139 -0.9733 0.2289
vn 0.0982 -0.8534 -0.5119
vn 0.1431 -0.5441 -0.8267
vn 0.0305 -0.9683 0.2478
vn 0.2633 -0.6958 0.6683
vn 0.0917 -0.8501 -0.5186
vn -0.1901 -0.8186 -0.5420
vn 0.7171 -0.6860 0.1236
vn 0.0456 -0.9757 -0.2143
vn 0.0752 -0.3127 0.9469
vn 0.1485 -0.6497 0.7455
vn 0.0094 0.2460 0.9692
vn 0.0838 0.8934 -0.4414
vn 0.0718 0.9628 -0.2606
vn -0.0239 0.7113 0.7025
vn -0.0240 0.7113 0.7025
vn 0.0717 0.9628 -0.2605
vn -0.0422 0.5625 0.8258
vn -0.0421 0.5625 0.8258
vn -0.0958 -0.2515 0.9631
vn -0.0421 0.5623 0.8258
vn -0.0993 -0.4335 0.8957
vn 0.0957 0.2515 -0.9631
vn 0.0240 -0.7112 -0.7026
vn 0.0887 0.0601 -0.9943
vn 0.0240 -0.7112 -0.7025
vn -0.0572 -0.9959 0.0700
vn -0.0718 -0.9628 0.2605
vn 0.0050 -0.8332 -0.5529
vn 0.0239 -0.7112 -0.7026
vn 0.0887 0.0601 -0.9942
vn 0.0048 -0.8333 -0.5529
vn -0.0571 -0.9959 0.0700
vn 0.0052 -0.8309 -0.5564
vn 0.0889 0.0644 -0.9940
vn -0.0718 -0.9628 0.2606
vn 0.2315 0.2273 -0.9459
vn 0.1389 -0.5783 -0.8039
vn 0.0861 -0.8662 -0.4922
vn 0.7153 -0.6884 0.1197
vn 0.7819 0.5459 0.3009
vn 0.0879 -0.8541 -0.5127
vn 0.8358 -0.5100 0.2033
vn -0.0240 -0.6917 -0.7217
vn 0.6068 -0.5788 0.5448
vn 0.6289 0.1808 -0.7562
vn -0.0229 -0.6948 -0.7189
vn 0.8333 -0.5126 0.2070
vn 0.6270 0.1778 -0.7584
vn 0.2940 0.9130 0.2829
vn -0.2446 0.5106 -0.8243
vn 0.7826 0.5481 0.2952
vn 0.2953 0.9028 0.3126
vn 0.0372 0.3568 -0.9335
vn 0.0602 0.9664 0.2497
vn 0.5364 0.5392 -0.6492
vn 0.1756 0.6116 -0.7715
vn -0.0311 -0.8201 -0.5714
vn 0.0601 -0.9611 -0.2697
vn 0.2446 -0.6851 0.6862
vn 0.0059 -0.7046 0.7096
vn 0.0930 0.2395 0.9664
vn 0.1188 -0.5414 0.8323
vn 0.4502 -0.2771 -0.8488
vn -0.0199 0.2352 0.9717
vn 0.0956 -0.9693 -0.2264
vn -0.0898 0.2296 0.9691
vn 0.4864 -0.2611 -0.8338
vn 0.1513 0.5986 -0.7866
vn -0.2219 0.9235 -0.3130
vn -0.3516 0.7831 -0.5129
vn -0.0882 -0.0113 -0.9960
vn 0.5972 -0.5982 -0.5343
vn -0.0125 0.0789 -0.9968
vn 0.4211 -0.7193 -0.5525
vn 0.0216 -0.7311 -0.6820
vn 0.0955 0.2237 -0.9700
vn -0.0216 0.7311 0.6820
vn 0.0787 0.8046 0.5886
vn -0.0119 -0.2906 0.9568
vn 0.0741 0.8027 0.5918
vn 0.0149 -0.9729 0.2309
vn -0.2424 -0.8290 -0.5041
vn -0.2194 -0.9511 -0.2175
vn -0.2232 -0.9485 -0.2247
vn -0.2410 -0.7413 -0.6264
vn -0.2054 -0.2088 -0.9561
vn -0.2018 -0.2107 -0.9565
vn -0.1620 0.4053 -0.8997
vn -0.1710 0.2583 -0.9508
vn -0.2474 -0.7385 -0.6272
vn -0.2167 -0.9563 -0.1962
vn -0.2261 -0.9501 -0.2151
vn -0.2335 -0.6520 -0.7214
vn -0.2077 -0.2195 -0.9532
vn -0.2011 -0.2288 -0.9525
vn -0.1773 0.2408 -0.9542
vn -0.0777 -0.0922 0.9927
vn -0.0468 -0.5110 0.8583
vn 0.0123 -0.9143 0.4049
vn -0.0940 0.6193 0.7795
vn -0.0786 0.8960 0.4370
vn -0.0365 0.9858 -0.1639
vn -0.0086 0.9107 -0.4131
vn 0.0598 0.3040 -0.9508
vn -0.0065 0.9095 -0.4156
vn 0.0643 0.3042 -0.9504
vn -0.0332 0.9855 -0.1665
vn 0.0882 -0.7730 -0.6283
vn 0.0642 0.3030 -0.9508
vn 0.0640 0.3030 -0.9508
vn 0.0908 -0.7729 -0.6280
vn 0.0860 -0.7731 -0.6285
vn 0.0370 -0.9877 0.1519
vn 0.0887 -0.7730 -0.6282
vn 0.0096 -0.9156 0.4020
vn -0.0977 0.7689 -0.6319
vn -0.1604 0.4001 -0.9023
vn -0.0913 0.7731 -0.6277
vn -0.1804 0.2388 -0.9542
vn -0.1443 0.5467 -0.8248
vn -0.1622 0.4073 -0.8988
vn -0.2035 -0.2033 -0.9577
vn -0.1005 0.7722 -0.6274
vn -0.0494 -0.5181 0.8539
vn 0.0342 -0.9874 0.1546
vn 0.0100 -0.9143 0.4050
vn -0.0971 0.7737 -0.6261
vn -0.0953 0.7757 -0.6238
vn -0.1421 0.5532 -0.8209
vn 0.0786 -0.8950 -0.4391
vn 0.0331 -0.9860 0.1636
vn 0.0088 -0.9107 0.4130
vn 0.0939 -0.6211 -0.7781
vn 0.0774 0.0945 -0.9925
vn 0.0466 0.5094 -0.8592
vn -0.0100 0.9144 -0.4048
vn 0.2411 0.7413 0.6264
vn 0.2418 0.8290 0.5043
vn 0.2169 0.9522 0.2149
vn 0.2056 0.2089 0.9561
vn 0.2021 0.2106 0.9565
vn 0.1628 -0.4041 0.9001
vn 0.1717 -0.2584 0.9507
vn 0.2078 0.2162 0.9540
vn 0.2009 0.2288 0.9525
vn 0.1793 -0.2409 0.9539
vn 0.2327 0.6530 0.7207
vn 0.2475 0.7385 0.6272
vn 0.2166 0.9563 0.1963
vn 0.2260 0.9501 0.2151
vn 0.1606 -0.4093 0.8982
vn 0.1444 -0.5456 0.8255
vn 0.2025 0.2034 0.9579
vn 0.0945 -0.7730 0.6274
vn 0.0900 -0.7771 0.6229
vn -0.0639 -0.3030 0.9508
vn -0.0882 0.7730 0.6282
vn -0.0640 -0.3030 0.9508
vn -0.0882 0.7730 0.6283
vn -0.0341 0.9879 -0.1516
vn -0.0885 0.7730 0.6282
vn -0.0885 0.7730 0.6283
vn -0.0099 0.9155 -0.4021
vn -0.0640 -0.3042 0.9505
vn 0.0088 -0.9094 0.4158
vn 0.0086 -0.9094 0.4158
vn 0.0329 -0.9855 0.1664
vn -0.0643 -0.3042 0.9504
vn -0.0098 0.9144 -0.4048
vn -0.0340 0.9874 -0.1546
vn 0.0464 0.5180 -0.8541
vn 0.2215 0.9500 0.2200
vn 0.2432 0.8328 0.4972
vn 0.2233 0.9486 0.2244
vn 0.1420 -0.5532 0.8209
vn 0.0956 -0.7759 0.6236
vn 0.0969 -0.7739 0.6259
vn 0.1042 -0.7638 0.6370
vn 0.1645 -0.3859 0.9077
vn 0.1761 -0.2387 0.9550
vt 0.140020 0.348407
vt 0.062600 0.346637
vt 0.103560 0.359254
vt 0.120286 0.290407
vt 0.184457 0.335187
vt 0.253128 0.230422
vt 0.274913 0.289054
vt 0.303337 0.207422
vt 0.306938 0.275805
vt 0.407562 0.263852
vt 0.316321 0.305261
vt 0.417223 0.296325
vt 0.331759 0.350897
vt 0.431290 0.343610
vt 0.347950 0.390728
vt 0.443493 0.384628
vt 0.451290 0.410835
vt 0.439869 0.155662
vt 0.489592 0.146590
vt 0.494310 0.062178
vt 0.438756 0.209691
vt 0.397945 0.142397
vt 0.362158 0.235945
vt 0.323273 0.164263
vt 0.292757 0.194501
vt 0.265911 0.079472
vt 0.208045 0.143913
vt 0.131850 0.022262
vt 0.105984 0.082966
vt 0.080940 0.000861
vt 0.052401 0.050968
vt 0.000860 0.020190
vt 0.215153 0.620051
vt 0.267583 0.531165
vt 0.185850 0.602037
vt 0.255866 0.601890
vt 0.248598 0.659488
vt 0.274703 0.624102
vt 0.332890 0.629310
vt 0.328343 0.587187
vt 0.407581 0.659488
vt 0.380701 0.560709
vt 0.307615 0.388802
vt 0.380069 0.454426
vt 0.388222 0.400355
vt 0.299551 0.442285
vt 0.228859 0.376927
vt 0.220707 0.430998
vt 0.142463 0.363900
vt 0.134310 0.417971
vt 0.042624 0.404146
vt 0.257172 0.726459
vt 0.257172 0.758554
vt 0.277382 0.726459
vt 0.217351 0.758554
vt 0.217351 0.726459
vt 0.166235 0.758554
vt 0.166235 0.726459
vt 0.132356 0.758554
vt 0.131759 0.726459
vt 0.873526 0.228870
vt 0.919888 0.165866
vt 0.873526 0.165866
vt 0.919888 0.228870
vt 0.873526 0.260965
vt 0.919888 0.260371
vt 0.873526 0.308516
vt 0.919888 0.308516
vt 0.924263 0.208222
vt 0.962344 0.208481
vt 0.922402 0.165266
vt 0.960719 0.238750
vt 0.923465 0.256392
vt 0.957017 0.285574
vt 0.922402 0.287288
vt 0.268041 0.863677
vt 0.287062 0.962344
vt 0.315592 0.863677
vt 0.256749 0.962344
vt 0.235946 0.863677
vt 0.196122 0.959966
vt 0.172942 0.863677
vt 0.634015 0.100935
vt 0.600730 0.084887
vt 0.600730 0.133030
vt 0.600730 0.051602
vt 0.634015 0.051602
vt 0.634015 0.008807
vt 0.872544 0.527150
vt 0.944150 0.542389
vt 0.910619 0.510368
vt 0.945361 0.660904
vt 0.884547 0.591333
vt 0.862983 0.660904
vt 0.363401 0.001162
vt 0.363230 0.048117
vt 0.447207 0.000873
vt 0.283585 0.047828
vt 0.283755 0.000873
vt 0.196212 0.047510
vt 0.876443 0.665466
vt 0.956683 0.789688
vt 0.956683 0.665466
vt 0.876443 0.789688
vt 0.814258 0.255108
vt 0.868940 0.342481
vt 0.814258 0.342481
vt 0.868940 0.255108
vt 0.814258 0.175462
vt 0.868346 0.175462
vt 0.394844 0.874917
vt 0.314604 0.999140
vt 0.314604 0.874917
vt 0.394844 0.999140
vt 0.638612 0.158788
vt 0.565887 0.303178
vt 0.643921 0.342481
vt 0.494754 0.267350
vt 0.567479 0.122960
vt 0.494754 0.086331
vt 0.331330 0.503421
vt 0.369370 0.497476
vt 0.369370 0.457654
vt 0.369370 0.548592
vt 0.331330 0.534922
vt 0.331330 0.583067
vt 0.001729 0.566085
vt 0.001729 0.416898
vt 0.066515 0.453750
vt 0.066515 0.528639
vt 0.398102 0.999140
vt 0.478342 0.874917
vt 0.478342 0.999140
vt 0.398102 0.874917
vt 0.504185 0.571409
vt 0.504185 0.733080
vt 0.591559 0.733080
vt 0.411463 0.733080
vt 0.411463 0.571409
vt 0.782926 0.923850
vt 0.847712 0.920283
vt 0.837606 0.877489
vt 0.847712 0.959514
vt 0.782926 0.952974
vt 0.821985 0.610326
vt 0.868940 0.610326
vt 0.821985 0.697699
vt 0.868940 0.530680
vt 0.821985 0.530680
vt 0.561839 0.874917
vt 0.481599 0.999140
vt 0.481599 0.874917
vt 0.561839 0.999140
vt 0.733080 0.363710
vt 0.648085 0.183614
vt 0.648085 0.363710
vt 0.733080 0.183614
vt 0.951022 0.162749
vt 0.863649 0.001078
vt 0.951022 0.001078
vt 0.863649 0.162749
vt 0.862885 0.346390
vt 0.942531 0.508061
vt 0.942531 0.346390
vt 0.862885 0.508061
vt 0.269570 0.594389
vt 0.302855 0.551595
vt 0.302855 0.594389
vt 0.269570 0.534358
vt 0.224283 0.189612
vt 0.257569 0.205661
vt 0.224283 0.156327
vt 0.224283 0.237755
vt 0.458529 0.090574
vt 0.458529 0.005579
vt 0.278433 0.090574
vt 0.396177 0.227485
vt 0.481172 0.407581
vt 0.481172 0.227485
vt 0.690623 0.366176
vt 0.605628 0.366176
vt 0.690623 0.546272
vt 0.341066 0.639594
vt 0.160970 0.724588
vt 0.341066 0.724588
vt 0.583067 0.444376
vt 0.545653 0.379503
vt 0.583067 0.314699
vt 0.655161 0.741571
vt 0.740156 0.741571
vt 0.655161 0.561475
vt 0.741571 0.550154
vt 0.656576 0.550154
vt 0.741571 0.730249
vt 0.693372 0.546272
vt 0.778367 0.546272
vt 0.693372 0.366176
vt 0.407581 0.781197
vt 0.407581 0.696202
vt 0.227486 0.781197
vt 0.781197 0.367591
vt 0.696202 0.367591
vt 0.781197 0.547687
vt 0.652413 0.792519
vt 0.652413 0.707524
vt 0.472317 0.792519
vt 0.323047 0.159919
vt 0.427394 0.092517
vt 0.279509 0.092517
vt 0.792519 0.829968
vt 0.630848 0.911396
vt 0.792519 0.911396
vt 0.195299 0.028541
vt 0.177695 0.001698
vt 0.177695 0.039626
vt 0.175486 0.884687
vt 0.131711 0.906035
vt 0.175486 0.945362
vt 0.585494 0.316455
vt 0.585494 0.421733
vt 0.602880 0.412652
vt 0.068610 0.463597
vt 0.068610 0.523628
vt 0.101895 0.480834
vt 0.462945 0.021909
vt 0.462945 0.084913
vt 0.500985 0.039146
vt 0.000905 0.024229
vt 0.000905 0.062269
vt 0.035380 0.062269
vt 0.554763 0.304416
vt 0.527171 0.285800
vt 0.527171 0.345312
vt 0.516402 0.582833
vt 0.561839 0.673641
vt 0.561839 0.570931
vt 0.059109 0.393429
vt 0.083498 0.370707
vt 0.059109 0.347191
vt 0.001415 0.002830
vt 0.460895 0.185204
vt 0.489663 0.236340
vt 0.489663 0.158532
vt 0.001957 0.887032
vt 0.001957 0.968005
vt 0.075007 0.906193
vt 0.611372 0.875709
vt 0.563822 0.875709
vt 0.611372 0.959514
vt 0.225019 0.679718
vt 0.183658 0.701945
vt 0.183658 0.602754
vt 0.934606 0.336835
vt 0.976496 0.358049
vt 0.976496 0.254115
vt 0.751477 0.843466
vt 0.704522 0.756093
vt 0.704522 0.843466
vt 0.631184 0.639038
vt 0.589294 0.617825
vt 0.589294 0.721758
vt 0.745417 0.614728
vt 0.792519 0.642506
vt 0.792519 0.534861
vt 0.286207 0.286401
vt 0.181860 0.353803
vt 0.329744 0.353803
vt 0.498326 0.567500
vt 0.385989 0.428417
vt 0.385989 0.567500
vt 0.498326 0.428417
vt 0.566085 0.567500
vt 0.566085 0.428417
vt 0.498326 0.291712
vt 0.068810 0.573732
vt 0.181147 0.710436
vt 0.181147 0.573732
vt 0.068810 0.710436
vt 0.001051 0.573732
vt 0.001051 0.710436
vt 0.736846 0.183811
vt 0.812332 0.183811
vt 0.736846 0.353803
vt 0.812332 0.353803
vt 0.819408 0.650831
vt 0.743922 0.820823
vt 0.743922 0.650831
vt 0.819408 0.820823
vt 0.784963 0.001248
vt 0.860449 0.171241
vt 0.784963 0.171241
vt 0.860449 0.001248
vt 0.784963 0.527874
vt 0.860449 0.357882
vt 0.860449 0.527874
vt 0.784963 0.357882
vt 0.876896 0.853944
vt 0.989233 0.990648
vt 0.876896 0.990648
vt 0.989233 0.853944
vt 0.652413 0.475044
vt 0.565021 0.583242
vt 0.599701 0.432468
vt 0.652413 0.653828
vt 0.000936 0.240586
vt 0.000936 0.070594
vt 0.076422 0.070594
vt 0.295954 0.543441
vt 0.187756 0.456050
vt 0.366540 0.456050
vt 0.353803 0.860449
vt 0.183811 0.784963
vt 0.183811 0.860449
vt 0.353803 0.784963
vt 0.108210 0.482939
vt 0.216408 0.570330
vt 0.037624 0.570330
vt 0.258984 0.517618
vt 0.150785 0.430227
vt 0.001862 0.397042
vt 0.781197 0.001052
vt 0.644492 0.001052
vt 0.644492 0.068810
vt 0.781197 0.068810
vt 0.644492 0.181147
vt 0.781197 0.181147
vt 0.030156 0.218140
vt 0.132478 0.123935
vt 0.086583 0.074087
vt 0.106244 0.300785
vt 0.005673 0.393378
vt 0.527874 0.796285
vt 0.357882 0.871771
vt 0.527874 0.871771
vt 0.357882 0.796285
vt 0.531953 0.796285
vt 0.701945 0.871771
vt 0.701945 0.796285
vt 0.531953 0.871771
vt 0.874601 0.873186
vt 0.874601 0.703193
vt 0.799115 0.873186
vt 0.171241 0.880262
vt 0.171241 0.804776
vt 0.001248 0.804776
vt 0.001248 0.807607
vt 0.001248 0.883092
vt 0.171241 0.883092
vt 0.458061 0.001767
vt 0.636845 0.001767
vt 0.566259 0.089158
vt 0.000948 0.801010
vt 0.179732 0.801010
vt 0.071534 0.713619
vt 0.135396 0.103272
vt 0.135396 0.280212
vt 0.222188 0.174593
s 1
usemtl TidusArmMat
f 9/1/1 11/3/3 10/2/2
f 10/2/2 12/4/4 9/1/1
f 13/5/5 9/1/1 12/4/4
f 12/4/4 14/6/6 13/5/5
f 15/7/7 13/5/5 14/6/6
f 14/6/6 16/8/8 15/7/7
f 17/9/9 15/7/7 16/8/8
f 16/8/8 18/10/10 17/9/9
f 19/11/11 17/9/9 18/10/10
f 18/10/10 20/12/12 19/11/11
f 21/13/13 19/11/11 20/12/12
f 20/12/12 22/14/14 21/13/13
f 23/15/15 21/13/13 22/14/14
f 22/14/14 24/16/16 23/15/15
f 25/17/17 23/15/15 24/16/16
f 26/18/18 28/20/20 27/19/19
f 27/19/19 29/21/21 26/18/18
f 30/22/22 26/18/18 29/21/21
f 29/21/21 31/23/23 30/22/22
f 32/24/24 30/22/22 31/23/23
f 31/23/23 33/25/25 32/24/24
f 34/26/26 32/24/24 33/25/25
f 33/25/25 35/27/27 34/26/26
f 36/28/28 34/26/26 35/27/27
f 35/27/27 37/29/29 36/28/28
f 38/30/30 36/28/28 37/29/29
f 37/29/29 39/31/31 38/30/30
f 40/32/32 38/30/30 39/31/31
f 41/33/33 43/35/35 42/34/34
f 42/34/34 44/36/36 41/33/33
f 45/37/37 41/33/33 44/36/36
f 44/36/36 46/38/38 45/37/37
f 47/39/39 45/37/37 46/38/38
f 46/38/38 48/40/40 47/39/39
f 49/41/41 47/39/39 48/40/40
f 48/40/40 50/42/42 49/41/41
f 51/43/43 53/45/45 52/44/44
f 52/44/44 54/46/46 51/43/43
f 55/47/47 51/43/43 54/46/46
f 54/46/46 56/48/47 55/47/47
f 57/49/48 55/47/47 56/48/47
f 56/48/47 58/50/49 57/49/48
f 59/51/50 57/49/48 58/50/49
f 60/52/51 62/54/53 61/53/52
f 61/53/52 63/55/54 60/52/51
f 64/56/55 60/52/51 63/55/54
f 63/55/54 65/57/56 64/56/55
f 66/58/57 64/56/55 65/57/56
f 65/57/56 67/59/58 66/58/57
f 68/60/59 66/58/57 67/59/58
f 69/61/60 71/63/62 70/62/61
f 70/62/61 72/64/63 69/61/60
f 73/65/64 69/61/60 72/64/63
f 72/64/63 74/66/65 73/65/64
f 75/67/66 73/65/64 74/66/65
f 74/66/65 76/68/67 75/67/66
f 77/69/68 79/71/70 78/70/69
f 78/70/69 80/72/71 77/69/68
f 81/73/72 77/69/68 80/72/71
f 80/72/71 82/74/73 81/73/72
f 83/75/74 81/73/72 82/74/73
f 84/76/75 86/78/77 85/77/76
f 85/77/76 87/79/78 84/76/75
f 88/80/79 84/76/75 87/79/78
f 87/79/78 89/81/80 88/80/79
f 90/82/81 88/80/79 89/81/80
f 91/83/82 93/85/84 92/84/83
f 92/84/83 94/86/85 91/83/82
f 95/87/86 91/83/82 94/86/85
f 94/86/85 96/88/87 95/87/86
f 97/89/88 99/91/90 98/90/89
f 98/90/89 100/92/91 97/89/88
f 101/93/92 97/89/88 100/92/91
f 100/92/91 102/94/93 101/93/92
f 103/95/94 105/97/96 104/96/95
f 104/96/95 106/98/97 103/95/94
f 107/99/98 103/95/94 106/98/97
f 106/98/97 108/100/99 107/99/98
f 109/101/97 111/103/95 110/102/100
f 110/102/100 112/104/101 109/101/97
f 113/103/102 109/101/97 112/104/101
f 112/104/101 114/102/103 113/103/102
f 115/105/104 117/107/105 116/106/105
f 116/106/105 118/108/106 115/105/104
f 119/109/107 115/105/104 118/108/106
f 118/108/106 120/110/107 119/109/107
f 121/111/108 123/113/110 122/112/109
f 122/112/109 124/114/111 121/111/108
f 125/113/112 121/111/108 124/114/111
f 124/114/111 126/112/113 125/113/112
f 127/115/114 129/117/116 128/116/115
f 128/116/115 130/118/117 127/115/114
f 131/119/118 127/115/114 130/118/117
f 130/118/117 132/120/119 131/119/118
f 133/121/120 135/123/122 134/122/121
f 134/122/121 136/124/123 133/121/120
f 137/125/124 133/121/120 136/124/123
f 136/124/123 138/126/125 137/125/124
f 139/127/126 141/129/128 140/128/127
f 140/128/127 142/129/129 139/127/126
f 143/130/130 139/127/126 142/129/129
f 144/131/131 146/133/133 145/132/132
f 145/132/132 147/134/134 144/131/131
f 148/132/135 144/131/131 147/134/134
f 149/135/136 151/137/138 150/136/137
f 150/136/137 152/138/139 149/135/136
f 153/139/140 149/135/136 152/138/139
f 154/140/141 156/142/143 155/141/142
f 155/141/142 157/143/144 154/140/141
f 158/144/145 154/140/141 157/143/144
f 159/145/146 161/147/148 160/146/147
f 160/146/147 162/148/149 159/145/146
f 163/149/100 159/145/146 162/148/149
f 164/150/150 166/152/152 165/151/151
f 165/151/151 167/153/153 164/150/150
f 168/151/154 164/150/150 167/153/153
f 169/154/155 171/156/157 170/155/156
f 170/155/156 172/157/158 169/154/155
f 173/158/159 175/160/161 174/159/160
f 174/159/160 176/161/162 173/158/159
f 177/162/163 179/164/165 178/163/164
f 178/163/164 180/165/166 177/162/163
f 181/166/167 183/168/169 182/167/168
f 182/167/168 184/169/170 181/166/167
f 185/170/171 187/172/173 186/171/172
f 186/171/172 188/173/174 185/170/171
f 189/174/175 191/176/177 190/175/176
f 192/177/178 194/179/180 193/178/179
f 195/180/132 197/182/182 196/181/181
f 198/183/182 200/185/184 199/184/183
f 201/186/185 203/188/126 202/187/186
f 204/189/156 206/191/188 205/190/187
f 207/192/189 209/194/184 208/193/190
f 210/195/182 212/197/190 211/196/184
f 213/198/191 215/200/193 214/199/192
f 216/201/188 218/203/189 217/202/194
f 219/204/190 221/206/191 220/205/195
f 222/207/196 224/209/198 223/208/197
f 225/210/199 227/212/201 226/211/200
f 228/213/202 230/215/204 229/214/203
f 231/216/205 233/218/207 232/217/206
f 234/219/208 236/221/210 235/220/209
f 237/222/211 239/224/213 238/223/212
f 240/225/214 242/227/216 241/226/215
f 243/228/217 245/230/219 244/229/218
f 246/231/220 248/233/222 247/232/221
f 249/234/223 251/236/225 250/235/224
f 252/237/226 254/239/228 253/238/227
f 255/240/229 257/240/231 256/240/230
f 258/241/232 260/243/234 259/242/233
f 261/244/235 263/246/237 262/245/236
f 264/247/238 266/249/239 265/248/100
f 267/250/148 269/252/101 268/251/103
f 270/253/148 272/255/99 271/254/148
f 273/256/102 275/258/102 274/257/98
f 276/259/240 278/261/148 277/260/102
f 279/262/113 281/264/241 280/263/105
f 282/265/242 284/267/244 283/266/243
f 290/268/245 292/270/247 291/269/246
f 291/269/246 293/271/248 290/268/245
f 294/272/249 290/268/245 293/271/248
f 293/271/248 295/273/250 294/272/249
f 296/271/251 294/272/249 295/273/250
f 295/273/250 297/274/252 296/271/251
f 298/275/253 300/277/255 299/276/254
f 299/276/254 301/278/256 298/275/253
f 302/279/257 298/275/253 301/278/256
f 301/278/256 303/280/258 302/279/257
f 304/278/259 302/279/257 303/280/258
f 305/281/260 307/283/262 306/282/261
f 306/282/261 308/284/263 305/281/260
f 309/283/264 305/281/260 308/284/263
f 308/284/263 310/282/265 309/283/264
f 311/281/266 309/283/264 310/282/265
f 315/285/267 317/287/269 316/286/268
f 316/286/268 318/288/270 315/285/267
f 319/289/271 321/291/273 320/290/272
f 320/290/272 322/292/274 319/289/271
f 323/293/275 325/295/277 324/294/276
f 324/294/276 326/296/278 323/293/275
f 327/297/279 329/299/281 328/298/280
f 328/298/280 330/300/282 327/297/279
f 331/301/283 333/303/285 332/302/284
f 332/302/284 334/304/286 331/301/283
f 337/305/287 339/307/289 338/306/288
f 340/308/290 342/310/292 341/309/291
f 348/311/293 350/313/295 349/312/294
f 349/312/294 351/314/296 348/311/293
f 352/313/297 348/311/293 351/314/296
f 351/314/296 353/312/298 352/313/297
f 354/311/299 352/313/297 353/312/298
f 355/315/300 357/317/302 356/316/301
f 356/316/301 358/318/303 355/315/300
f 359/319/304 355/315/300 358/318/303
f 358/318/303 360/315/305 359/319/304
f 361/320/306 359/319/304 360/315/305
f 362/321/307 364/323/309 363/322/308
f 363/322/308 365/323/310 362/321/307
f 366/324/311 362/321/307 365/323/310
f 365/323/310 367/325/312 366/324/311
f 368/326/313 366/324/311 367/325/312
f 372/327/314 374/329/316 373/328/315
f 373/328/315 375/330/317 372/327/314
f 376/331/318 372/327/314 375/330/317
f 377/332/319 379/334/321 378/333/320
f 378/333/320 380/335/322 377/332/319
f 381/336/323 383/338/325 382/337/324
f 382/337/324 384/339/326 381/336/323
f 387/340/327 389/342/327 388/341/328
f 390/343/329 392/345/331 391/344/330
f 393/346/332 395/348/334 394/347/333
f 396/349/335 398/351/337 397/350/336
f 399/352/338 401/354/340 400/353/339
f 402/355/341 404/357/343 403/356/342
l 1 2
l 3 4
l 5 6
l 7 8
l 285 286
l 287 288
l 288 289
l 312 313
l 312 314
l 335 336
l 343 344
l 345 346
l 345 347
l 369 370
l 370 371
l 385 386
